<svg width="161" height="25" viewBox="0 0 161 25" fill="none" xmlns="http://www.w3.org/2000/svg">
<path d="M31 19.2001C30.6 19.2001 30.4 19.1001 30.2 19.0001C30.1 18.8001 30 18.6001 30 18.3001L30 7.1001C30 6.8001 30.1 6.5001 30.2 6.4001C30.4 6.2001 30.6 6.1001 31 6.1001L35.7 6.1001C37.5 6.1001 38.8 6.5001 39.7 7.2001C40.5 8.0001 41 9.1001 41 10.6001C41 12.1001 40.6 13.2001 39.7 14.0001C38.9 14.7001 37.5 15.1001 35.7 15.1001L33.9 15.1001L33.9 18.2001C33.9 18.5001 33.8 18.8001 33.7 18.9001C33.5 19.1001 33.3 19.1001 32.9 19.1001L31 19.1001L31 19.2001ZM35.4 12.3001C35.9 12.3001 36.3 12.2001 36.6 11.9001C36.9 11.6001 37 11.2001 37 10.6001C37 10.0001 36.9 9.6001 36.6 9.3001C36.3 9.0001 35.9 8.9001 35.4 8.9001L33.9 8.9001L33.9 12.3001L35.4 12.3001Z" fill="black"/>
<path d="M45.5 19.5001C44.3 19.5001 43.3 19.1001 42.6 18.3001C41.9 17.5001 41.5 16.4001 41.5 15.0001C41.5 13.9001 41.7 13.0001 42.2 12.2001C42.7 11.4001 43.4 10.8001 44.3 10.3001C45.2 9.9001 46.3 9.6001 47.4 9.6001C48.4 9.6001 49.2 9.7001 50 9.9001C50.8 10.1001 51.4 10.4001 52.1 10.8001L52.1 18.5001C52.1 18.7001 52.1 18.9001 52 19.0001C51.9 19.1001 51.7 19.1001 51.5 19.1001L49.5 19.1001C49.4 19.1001 49.2 19.1001 49.2 19.0001C49.1 18.9001 49.1 18.9001 49 18.8001L48.7 18.2001C48.3 18.6001 47.9 18.9001 47.4 19.1001C46.9 19.4001 46.2 19.5001 45.5 19.5001ZM46.9 16.9001C47.4 16.9001 47.8 16.8001 48.1 16.5001C48.4 16.3001 48.5 15.9001 48.5 15.5001L48.5 12.5001C48.3 12.4001 47.9 12.3001 47.6 12.3001C46.9 12.3001 46.4 12.5001 46 13.0001C45.6 13.5001 45.4 14.1001 45.4 15.0001C45.4 16.2001 45.9 16.9001 46.9 16.9001Z" fill="black"/>
<path d="M54.7998 19.1997C54.3998 19.1997 54.1998 19.0997 53.9998 18.9997C53.7998 18.7997 53.7998 18.5997 53.7998 18.2997L53.7998 10.4997C53.7998 10.2997 53.7998 10.0997 53.8998 9.99971C53.9998 9.89971 54.1998 9.89971 54.3998 9.89971L56.3998 9.89971C56.5998 9.89971 56.6998 9.89971 56.6998 9.99971C56.7998 9.99971 56.7998 10.0997 56.8998 10.1997L56.9998 10.7997C57.3998 10.3997 57.7998 10.1997 58.3998 9.99971C58.9998 9.79971 59.5998 9.69971 60.3998 9.69971C61.3998 9.69971 62.2998 9.9997 62.8998 10.5997C63.4998 11.1997 63.8998 11.9997 63.8998 13.1997L63.8998 18.2997C63.8998 18.5997 63.7998 18.8997 63.6998 18.9997C63.5998 19.1997 63.2998 19.1997 62.8998 19.1997L60.9998 19.1997C60.5998 19.1997 60.3998 19.0997 60.1998 18.9997C59.9998 18.7997 59.9998 18.5997 59.9998 18.2997L59.9998 13.3997C59.9998 12.9997 59.8998 12.6997 59.6998 12.5997C59.4998 12.3997 59.2998 12.2997 58.8998 12.2997C58.4998 12.2997 58.1998 12.3997 57.9998 12.5997C57.7998 12.7997 57.6998 13.0997 57.6998 13.3997L57.6998 18.1997C57.6998 18.4997 57.5998 18.7997 57.4998 18.8997C57.3998 19.0997 57.0998 19.0997 56.6998 19.0997L54.7998 19.0997L54.7998 19.1997Z" fill="black"/>
<path d="M70.7 19.4997C68.9 19.4997 67.5 19.0997 66.5 18.1997C65.5 17.3997 65 16.1997 65 14.5997C65 13.5997 65.2 12.7997 65.7 11.9997C66.1 11.2997 66.8 10.6997 67.6 10.2997C68.5 9.89971 69.5 9.69971 70.6 9.69971C71.5 9.69971 72.2 9.79971 72.8 9.99971C73.4 10.1997 74 10.3997 74.4 10.7997C74.5 10.8997 74.6 10.9997 74.6 11.0997C74.6 11.1997 74.5 11.2997 74.4 11.4997L73.6 12.8997C73.5 13.0997 73.4 13.1997 73.3 13.1997C73.2 13.1997 73.1 13.0997 72.9 12.9997C72.6 12.7997 72.2 12.5997 71.9 12.4997C71.6 12.3997 71.2 12.2997 70.8 12.2997C70.2 12.2997 69.6 12.4997 69.2 12.8997C68.8 13.2997 68.6 13.8997 68.6 14.5997C68.6 15.2997 68.8 15.8997 69.2 16.2997C69.6 16.6997 70.1 16.8997 70.8 16.8997C71.2 16.8997 71.6 16.7997 71.9 16.6997C72.2 16.5997 72.6 16.3997 72.9 16.1997C73.1 16.0997 73.2 15.9997 73.3 15.9997C73.4 15.9997 73.5 16.0997 73.6 16.2997L74.5 17.7997C74.6 17.8997 74.6 17.9997 74.6 18.0997C74.6 18.1997 74.5 18.2997 74.4 18.3997C73.9 18.6997 73.3 18.9997 72.6 19.1997C72.3 19.3997 71.6 19.4997 70.7 19.4997Z" fill="black"/>
<path d="M79.7998 19.5001C78.5998 19.5001 77.5998 19.1001 76.8998 18.3001C76.1998 17.5001 75.7998 16.4001 75.7998 15.0001C75.7998 13.9001 75.9998 13.0001 76.4998 12.2001C76.9998 11.4001 77.6998 10.8001 78.5998 10.3001C79.4998 9.9001 80.5998 9.6001 81.6998 9.6001C82.6998 9.6001 83.4998 9.7001 84.2998 9.9001C85.0998 10.1001 85.6998 10.4001 86.3998 10.8001L86.3998 18.5001C86.3998 18.7001 86.3998 18.9001 86.2998 19.0001C86.1998 19.1001 85.9998 19.1001 85.7998 19.1001L83.7998 19.1001C83.6998 19.1001 83.4998 19.1001 83.4998 19.0001C83.3998 18.9001 83.3998 18.9001 83.2998 18.8001L82.9998 18.2001C82.5998 18.6001 82.1998 18.9001 81.6998 19.1001C81.1998 19.4001 80.5998 19.5001 79.7998 19.5001ZM81.2998 16.9001C81.7998 16.9001 82.1998 16.8001 82.4998 16.5001C82.7998 16.3001 82.8998 15.9001 82.8998 15.5001L82.8998 12.5001C82.6998 12.4001 82.2998 12.3001 81.9998 12.3001C81.2998 12.3001 80.7998 12.5001 80.3998 13.0001C79.9998 13.5001 79.7998 14.1001 79.7998 15.0001C79.6998 16.2001 80.1998 16.9001 81.2998 16.9001Z" fill="black"/>
<path d="M98.6001 18.5001C98.7001 18.6001 98.7001 18.7001 98.7001 18.8001C98.7001 18.9001 98.7001 19.0001 98.6001 19.1001C98.5001 19.2001 98.4001 19.2001 98.3001 19.2001L95.3001 19.2001C95.1001 19.2001 95.0001 19.2001 94.9001 19.2001C94.8001 19.2001 94.7001 19.1001 94.6001 19.0001L92.0001 15.4001L92.0001 18.2001C92.0001 18.5001 91.9001 18.8001 91.8001 18.9001C91.6001 19.1001 91.4001 19.1001 91.0001 19.1001L89.1001 19.1001C88.7001 19.1001 88.5001 19.0001 88.3001 18.9001C88.2001 18.7001 88.1001 18.5001 88.1001 18.2001L88.1001 7.1001C88.1001 6.8001 88.2001 6.5001 88.3001 6.4001C88.5001 6.2001 88.7001 6.1001 89.1001 6.1001L91.0001 6.1001C91.4001 6.1001 91.6001 6.2001 91.8001 6.4001C92.0001 6.6001 92.0001 6.8001 92.0001 7.1001L92.0001 13.5001L94.5001 10.2001C94.6001 10.1001 94.7001 10.0001 94.8001 10.0001C94.9001 10.0001 95.0001 9.9001 95.2001 9.9001L98.2001 9.9001C98.3001 9.9001 98.4001 9.9001 98.5001 10.0001C98.6001 10.1001 98.6001 10.2001 98.6001 10.3001C98.6001 10.4001 98.6001 10.5001 98.5001 10.6001L95.2001 14.4001L98.6001 18.5001Z" fill="black"/>
<path d="M104.8 19.4998C103.7 19.4998 102.8 19.2998 101.9 18.9998C101.1 18.5998 100.4 18.0998 99.9002 17.3998C99.4002 16.6998 99.2002 15.7998 99.2002 14.7998C99.2002 13.1998 99.7002 11.8998 100.6 11.0998C101.5 10.1998 102.9 9.7998 104.6 9.7998C106.3 9.7998 107.6 10.1998 108.4 11.0998C109.3 11.8998 109.7 13.0998 109.7 14.5998C109.7 15.1998 109.4 15.5998 108.9 15.5998L102.9 15.5998C102.9 16.1998 103.1 16.5998 103.5 16.8998C103.9 17.1998 104.6 17.2998 105.4 17.2998C105.9 17.2998 106.4 17.2998 106.7 17.1998C107.1 17.0998 107.4 16.8998 107.8 16.7998C108 16.6998 108.1 16.6998 108.1 16.6998C108.2 16.6998 108.3 16.7998 108.4 16.8998L109.1 18.0998C109.2 18.1998 109.2 18.2998 109.2 18.3998C109.2 18.4998 109.1 18.5998 109 18.6998C108.5 18.9998 107.9 19.2998 107.2 19.4998C106.4 19.3998 105.7 19.4998 104.8 19.4998ZM106.3 13.4998C106.3 12.9998 106.2 12.5998 105.9 12.3998C105.6 12.0998 105.2 11.9998 104.6 11.9998C104 11.9998 103.6 12.0998 103.3 12.3998C103 12.6998 102.9 12.9998 102.9 13.4998L106.3 13.4998Z" fill="black"/>
<path d="M116.4 19.5C115.3 19.5 114.3 19.4 113.3 19.2C112.3 19 111.6 18.6 111 18.2C110.8 18.1 110.7 17.9 110.7 17.8C110.7 17.7 110.7 17.6 110.8 17.5L111.7 16C111.8 15.8 111.9 15.8 112 15.8C112.1 15.8 112.2 15.8 112.3 15.9C112.8 16.2 113.3 16.4 113.9 16.6C114.5 16.8 115.1 16.9 115.7 16.9C116.3 16.9 116.7 16.8 117 16.6C117.3 16.4 117.4 16.1 117.4 15.7C117.4 15.3 117.2 15 116.9 14.8C116.6 14.6 116 14.3 115.1 14C113.8 13.5 112.8 13 112.1 12.4C111.4 11.8 111 10.9 111 9.9C111 8.6 111.5 7.7 112.4 7C113.3 6.3 114.5 6 116 6C117.1 6 118 6.1 118.7 6.3C119.5 6.5 120.1 6.8 120.6 7.1C120.8 7.3 120.9 7.4 120.9 7.6C120.9 7.7 120.9 7.8 120.8 7.9L119.9 9.4C119.8 9.6 119.7 9.6 119.6 9.6C119.5 9.6 119.4 9.6 119.3 9.5C118.6 9 117.7 8.8 116.6 8.8C116 8.8 115.6 8.9 115.3 9.1C115 9.3 114.9 9.6 114.9 10C114.9 10.3 115 10.5 115.1 10.7C115.3 10.9 115.5 11 115.7 11.2C116 11.3 116.4 11.5 116.9 11.7L117.3 11.8C118.2 12.2 119 12.5 119.5 12.9C120.1 13.2 120.5 13.7 120.8 14.2C121.1 14.7 121.2 15.3 121.2 16C121.2 17.1 120.8 18.1 119.9 18.7C119.3 19.1 118 19.5 116.4 19.5Z" fill="black"/>
<path d="M125.5 19.1999C125.3 19.1999 125.2 19.1999 125.1 19.0999C125 18.9999 124.9 18.8999 124.9 18.6999L122.4 10.3999C122.4 10.2999 122.4 10.2999 122.4 10.1999C122.4 9.9999 122.5 9.8999 122.8 9.8999L125.3 9.8999C125.5 9.8999 125.6 9.8999 125.7 9.9999C125.8 10.0999 125.8 10.0999 125.9 10.2999L126.9 14.6999L128.2 11.1999C128.3 10.9999 128.3 10.8999 128.4 10.8999C128.5 10.7999 128.6 10.7999 128.8 10.7999L130 10.7999C130.2 10.7999 130.3 10.7999 130.4 10.8999C130.5 10.9999 130.5 11.0999 130.6 11.1999L131.9 14.6999L133 10.2999C133 10.1999 133.1 10.0999 133.2 9.9999C133.3 9.8999 133.4 9.8999 133.5 9.8999L136.1 9.8999C136.4 9.8999 136.5 9.9999 136.5 10.1999C136.5 10.1999 136.5 10.2999 136.5 10.3999L134 18.6999C133.9 18.8999 133.9 18.9999 133.8 19.0999C133.7 19.1999 133.6 19.1999 133.4 19.1999L131.5 19.1999C131.3 19.1999 131.2 19.1999 131.1 19.0999C131 18.9999 130.9 18.8999 130.9 18.6999L129.6 15.1999L128.3 18.6999C128.2 18.8999 128.2 18.9999 128.1 19.0999C128 19.1999 127.9 19.1999 127.7 19.1999L125.5 19.1999Z" fill="black"/>
<path d="M141.1 19.5001C139.9 19.5001 138.9 19.1001 138.2 18.3001C137.5 17.5001 137.1 16.4001 137.1 15.0001C137.1 13.9001 137.3 13.0001 137.8 12.2001C138.3 11.4001 139 10.8001 139.9 10.3001C140.8 9.9001 141.9 9.6001 143 9.6001C144 9.6001 144.8 9.7001 145.6 9.9001C146.4 10.1001 147 10.4001 147.7 10.8001L147.7 18.5001C147.7 18.7001 147.7 18.9001 147.6 19.0001C147.5 19.1001 147.3 19.1001 147.1 19.1001L145.1 19.1001C145 19.1001 144.9 19.1001 144.8 19.0001C144.7 18.9001 144.7 18.9001 144.6 18.8001L144.3 18.2001C143.9 18.6001 143.5 18.9001 143 19.1001C142.5 19.4001 141.9 19.5001 141.1 19.5001ZM142.6 16.9001C143.1 16.9001 143.5 16.8001 143.8 16.5001C144.1 16.3001 144.2 15.9001 144.2 15.5001L144.2 12.5001C144 12.4001 143.6 12.3001 143.3 12.3001C142.6 12.3001 142.1 12.5001 141.7 13.0001C141.3 13.5001 141.1 14.1001 141.1 15.0001C141 16.2001 141.5 16.9001 142.6 16.9001Z" fill="black"/>
<path d="M150.4 23.0998C150 23.0998 149.8 22.9998 149.6 22.8998C149.5 22.6998 149.4 22.4998 149.4 22.1998L149.4 11.1998C150 10.7998 150.7 10.3998 151.6 10.1998C152.5 9.89981 153.4 9.7998 154.3 9.7998C158.2 9.7998 160.1 11.3998 160.1 14.6998C160.1 16.1998 159.7 17.3998 158.9 18.2998C158.1 19.1998 156.9 19.5998 155.4 19.5998C155 19.5998 154.6 19.4998 154.2 19.3998C153.8 19.2998 153.5 19.1998 153.2 18.9998L153.2 22.1998C153.2 22.4998 153.1 22.7998 153 22.8998C152.8 23.0998 152.6 23.0998 152.2 23.0998L150.4 23.0998ZM154.6 16.8998C155.2 16.8998 155.6 16.6998 155.8 16.2998C156.1 15.8998 156.2 15.2998 156.2 14.5998C156.2 13.7998 156 13.1998 155.7 12.7998C155.4 12.4998 154.9 12.2998 154.2 12.2998C153.8 12.2998 153.4 12.3998 153.2 12.4998L153.2 15.4998C153.2 15.8998 153.3 16.2998 153.6 16.4998C153.8 16.7998 154.2 16.8998 154.6 16.8998Z" fill="black"/>
<path fill-rule="evenodd" clip-rule="evenodd" d="M4.5 3.9C4.1 1.9 5.7 -2.25268e-08 7.7 -3.0431e-08C9.5 -3.75447e-08 11 1.5 11 3.3L11 7.3C11.5 7.3 11.9 7.3 12.4 7.3C12.8 7.3 13.3 7.3 13.7 7.3L13.7 3.3C13.7 1.5 15.2 -6.00716e-08 17 -6.71853e-08C19 -7.50894e-08 20.6 1.9 20.2 3.9L19.3 8.6C22.3 9.9 24.6 12.2 24.6 15.1L24.6 16.8C24.6 19.2 23 21.2 20.8 22.5C18.6 23.9 15.6 24.7 12.3 24.7C9 24.7 6 23.9 3.8 22.5C1.6 21.2 7.58799e-08 19.2 6.63949e-08 16.8L5.96763e-08 15.1C4.82153e-08 12.2 2.3 9.9 5.3 8.6L4.5 3.9ZM18.2 9.3L19.2 3.8C19.5 2.4 18.4 1.1 17 1.1C15.7 1.1 14.7 2.1 14.7 3.4L14.7 8.5C14.4 8.5 14 8.4 13.7 8.4C13.3 8.4 12.8 8.4 12.4 8.4C11.9 8.4 11.5 8.4 11 8.5C10.7 8.5 10.3 8.6 10 8.6L10 3.5C10 2.2 9 1.2 7.7 1.2C6.3 1.2 5.2 2.5 5.5 3.9L6.5 9.5C3.3 10.7 1.1 12.9 1.1 15.4L1.1 17.1C1.1 20.9 6.1 24 12.3 24C18.5 24 23.5 20.9 23.5 17.1L23.5 15.4C23.6 12.7 21.4 10.5 18.2 9.3Z" fill="#633001"/>
<path d="M23.6002 16.8997C23.6002 20.6997 18.6002 23.7997 12.4002 23.7997C6.2002 23.7997 1.2002 20.6997 1.2002 16.8997L1.2002 15.1997L23.7002 15.1997L23.7002 16.8997L23.6002 16.8997Z" fill="#FEDC90"/>
<path fill-rule="evenodd" clip-rule="evenodd" d="M5.4998 3.7C5.1998 2.3 6.29981 1 7.69981 1C8.99981 1 9.9998 2 9.9998 3.3L9.9998 8.5C10.7998 8.4 11.5998 8.3 12.3998 8.3C13.1998 8.3 13.9998 8.4 14.6998 8.4L14.6998 3.3C14.6998 2 15.6998 1 16.9998 1C18.3998 1 19.4998 2.3 19.1998 3.7L18.1998 9.2C21.4998 10.4 23.6998 12.6 23.6998 15.1C23.6998 18.9 18.6998 22 12.4998 22C6.2998 22 1.2998 18.9 1.2998 15.1C1.2998 12.6 3.49981 10.4 6.69981 9.2L5.4998 3.7Z" fill="#D1884F"/>
<path d="M9.2999 14.6998C9.2999 15.6998 8.6999 16.5998 8.0999 16.5998C7.4999 16.5998 6.8999 15.7998 6.8999 14.6998C6.8999 13.6998 7.4999 12.7998 8.0999 12.7998C8.6999 12.7998 9.2999 13.5998 9.2999 14.6998Z" fill="#633001"/>
<path d="M17.9 14.6998C17.9 15.6998 17.3 16.5998 16.7 16.5998C16 16.5998 15.5 15.7998 15.5 14.6998C15.5 13.6998 16.1 12.7998 16.7 12.7998C17.3 12.7998 17.9 13.5998 17.9 14.6998Z" fill="#633001"/>
</svg>
