<svg width="381" height="97" viewBox="0 0 381 97" fill="none" xmlns="http://www.w3.org/2000/svg">
<path d="M127.516 38.8471H117.154V32.7401H145.371V38.8471H135.009V65.1221H127.516V38.8471ZM152.47 43.5191C153.333 42.3161 154.49 41.4061 155.939 40.7891C157.419 40.1731 159.115 39.8641 161.027 39.8641V46.5261C160.226 46.4641 159.686 46.4331 159.408 46.4331C157.342 46.4331 155.723 47.0191 154.551 48.1911C153.379 49.3321 152.793 51.0591 152.793 53.3721V65.1221H145.577V40.2341H152.47V43.5191ZM187.796 40.2341V65.1221H180.949V62.1611C179.993 63.2401 178.852 64.0731 177.526 64.6591C176.2 65.2141 174.766 65.4921 173.224 65.4921C169.955 65.4921 167.365 64.5511 165.453 62.6701C163.541 60.7891 162.585 57.9981 162.585 54.2971V40.2341H169.801V53.2331C169.801 57.2421 171.482 59.2471 174.843 59.2471C176.57 59.2471 177.958 58.6921 179.007 57.5811C180.055 56.4401 180.579 54.7601 180.579 52.5391V40.2341H187.796ZM200.079 65.4921C198.012 65.4921 195.992 65.2451 194.019 64.7521C192.045 64.2271 190.472 63.5801 189.3 62.8091L191.706 57.6281C192.816 58.3371 194.157 58.9231 195.73 59.3851C197.303 59.8171 198.845 60.0331 200.356 60.0331C203.409 60.0331 204.936 59.2781 204.936 57.7661C204.936 57.0571 204.519 56.5481 203.687 56.2401C202.854 55.9321 201.574 55.6691 199.847 55.4531C197.812 55.1451 196.131 54.7901 194.805 54.3901C193.479 53.9891 192.323 53.2791 191.336 52.2621C190.38 51.2441 189.902 49.7951 189.902 47.9131C189.902 46.3411 190.349 44.9531 191.243 43.7501C192.168 42.5161 193.494 41.5601 195.221 40.8821C196.979 40.2041 199.045 39.8641 201.42 39.8641C203.178 39.8641 204.92 40.0651 206.647 40.4661C208.405 40.8361 209.855 41.3601 210.996 42.0381L208.59 47.1731C206.401 45.9401 204.011 45.3231 201.42 45.3231C199.878 45.3231 198.722 45.5391 197.951 45.9701C197.18 46.4021 196.794 46.9571 196.794 47.6361C196.794 48.4071 197.211 48.9461 198.043 49.2551C198.876 49.5631 200.202 49.8561 202.021 50.1341C204.057 50.4731 205.722 50.8431 207.017 51.2441C208.313 51.6141 209.438 52.3081 210.394 53.3261C211.35 54.3431 211.828 55.7621 211.828 57.5811C211.828 59.1231 211.366 60.4961 210.441 61.6981C209.515 62.9011 208.158 63.8421 206.37 64.5201C204.612 65.1681 202.515 65.4921 200.079 65.4921ZM229.557 63.9191C228.848 64.4431 227.969 64.8441 226.92 65.1221C225.903 65.3681 224.823 65.4921 223.682 65.4921C220.722 65.4921 218.424 64.7361 216.79 63.2251C215.186 61.7141 214.384 59.4931 214.384 56.5641V46.3411H210.545V40.7891H214.384V34.7301H221.6V40.7891H227.799V46.3411H221.6V56.4711C221.6 57.5201 221.863 58.3371 222.387 58.9231C222.942 59.4781 223.713 59.7561 224.7 59.7561C225.841 59.7561 226.812 59.4471 227.614 58.8301L229.557 63.9191ZM290.608 32.7401L280.015 65.1221H271.966L264.842 43.1951L257.487 65.1221H249.484L238.845 32.7401H246.616L253.925 55.5001L261.558 32.7401H268.496L275.898 55.6851L283.438 32.7401H290.608ZM299.693 39.8641C303.548 39.8641 306.509 40.7891 308.575 42.6401C310.641 44.4591 311.674 47.2191 311.674 50.9201V65.1221H304.92V62.0221C303.564 64.3351 301.035 65.4921 297.334 65.4921C295.422 65.4921 293.757 65.1681 292.338 64.5201C290.95 63.8731 289.886 62.9781 289.146 61.8371C288.406 60.6961 288.036 59.4011 288.036 57.9511C288.036 55.6391 288.9 53.8191 290.627 52.4931C292.384 51.1671 295.083 50.5041 298.722 50.5041H304.458C304.458 48.9311 303.98 47.7281 303.024 46.8961C302.068 46.0321 300.634 45.6001 298.722 45.6001C297.396 45.6001 296.085 45.8161 294.79 46.2481C293.525 46.6491 292.446 47.2041 291.552 47.9131L288.961 42.8711C290.318 41.9151 291.937 41.1751 293.818 40.6511C295.73 40.1261 297.689 39.8641 299.693 39.8641ZM299.138 60.6341C300.372 60.6341 301.467 60.3571 302.423 59.8021C303.379 59.2161 304.057 58.3681 304.458 57.2581V54.7131H299.508C296.548 54.7131 295.067 55.6851 295.067 57.6281C295.067 58.5531 295.422 59.2931 296.131 59.8481C296.871 60.3721 297.874 60.6341 299.138 60.6341ZM315.43 30.7981H322.646V65.1221H315.43V30.7981ZM326.568 30.7981H333.785V65.1221H326.568V30.7981ZM362.085 52.7701C362.085 52.8631 362.039 53.5111 361.946 54.7131H343.119C343.458 56.2551 344.26 57.4731 345.524 58.3681C346.789 59.2621 348.361 59.7091 350.243 59.7091C351.538 59.7091 352.679 59.5241 353.666 59.1541C354.683 58.7531 355.624 58.1371 356.487 57.3041L360.327 61.4671C357.983 64.1501 354.56 65.4921 350.058 65.4921C347.251 65.4921 344.769 64.9521 342.61 63.8731C340.451 62.7621 338.786 61.2361 337.614 59.2931C336.442 57.3501 335.856 55.1451 335.856 52.6781C335.856 50.2421 336.427 48.0521 337.568 46.1091C338.74 44.1361 340.328 42.6091 342.332 41.5301C344.368 40.4191 346.634 39.8641 349.132 39.8641C351.569 39.8641 353.774 40.3891 355.747 41.4371C357.721 42.4861 359.263 43.9971 360.373 45.9701C361.514 47.9131 362.085 50.1801 362.085 52.7701ZM349.179 45.3231C347.544 45.3231 346.172 45.7851 345.062 46.7111C343.951 47.6361 343.273 48.9001 343.026 50.5041H355.285C355.038 48.9311 354.36 47.6821 353.249 46.7571C352.139 45.8011 350.782 45.3231 349.179 45.3231ZM380.165 63.9191C379.456 64.4431 378.577 64.8441 377.529 65.1221C376.511 65.3681 375.432 65.4921 374.291 65.4921C371.33 65.4921 369.033 64.7361 367.398 63.2251C365.794 61.7141 364.993 59.4931 364.993 56.5641V46.3411H361.153V40.7891H364.993V34.7301H372.209V40.7891H378.408V46.3411H372.209V56.4711C372.209 57.5201 372.471 58.3371 372.995 58.9231C373.55 59.4781 374.321 59.7561 375.308 59.7561C376.449 59.7561 377.421 59.4471 378.223 58.8301L380.165 63.9191Z" fill="#3375BB"/>
<path d="M64.402 1H33.0485C15.3486 1 1 15.3486 1 33.0485V64.402C1 82.1019 15.3486 96.4505 33.0485 96.4505H64.402C82.1019 96.4505 96.4505 82.1019 96.4505 64.402V33.0485C96.4505 15.3486 82.1019 1 64.402 1Z" fill="white" stroke="#DFE5EC"/>
<path d="M4.64551 49.4141C4.64551 24.9191 24.5024 5.0625 48.9969 5.0625C73.4919 5.0625 93.3489 24.9191 93.3489 49.4141C93.3489 73.9091 73.4919 93.7661 48.9969 93.7661C24.5024 93.7661 4.64551 73.9091 4.64551 49.4141Z" fill="white"/>
<path d="M49.0231 23.687C57.9731 31.161 68.2371 30.7 71.1691 30.7C70.5281 73.21 65.6401 64.781 49.0231 76.701C32.4064 64.781 27.5496 73.21 26.9082 30.7C29.81 30.7 40.0734 31.161 49.0231 23.687Z" stroke="#3375BB" stroke-width="6.06304" stroke-miterlimit="10" stroke-linecap="round" stroke-linejoin="round"/>
</svg>
