<svg width="267" height="160" viewBox="0 0 267 160" fill="none" xmlns="http://www.w3.org/2000/svg">
<g clip-path="url(#clip0_40_1873)">
<path d="M124.007 107.403L113.707 84.668L92.3093 115.082C92.3093 115.082 104.878 124.65 124.007 107.403Z" fill="#C9C57D"/>
<path d="M101.865 117.933C95.7839 117.933 92.327 115.35 92.1852 115.243C92.0965 115.171 92.0788 115.047 92.1497 114.958L113.547 84.5256C113.583 84.4722 113.671 84.4365 113.742 84.4365C113.813 84.4365 113.884 84.49 113.92 84.5612L124.219 107.296C124.255 107.385 124.237 107.474 124.166 107.546C116.508 114.441 109.009 117.933 101.865 117.933ZM92.6106 115.029C93.3729 115.528 96.6703 117.506 101.865 117.506C108.867 117.506 116.242 114.085 123.759 107.332L113.671 85.0779L92.6106 115.029Z" fill="#9B954B"/>
<path d="M124.007 107.403L113.707 84.668L92.3093 115.082C92.3093 115.082 104.878 124.65 124.007 107.403Z" fill="url(#paint0_radial_40_1873)"/>
<path opacity="0.5" d="M124.007 107.403L113.707 84.668L92.3093 115.082C92.3093 115.082 104.878 124.65 124.007 107.403Z" fill="url(#paint1_radial_40_1873)"/>
<path d="M239.362 82.7616C233.53 82.138 229.913 75.1536 217.77 85.9331C205.626 96.7126 201.371 111.608 187.827 112.232C174.265 112.873 178.839 96.0712 166.075 94.4854C153.276 92.8997 138.136 113.853 125.602 112.249C121.862 111.768 119.575 109.541 117.962 106.477C111.774 116.882 92.2915 112.855 92.2915 112.855L86.1931 117.826C86.1931 117.826 92.8765 143.394 173.592 131.136C240.887 120.926 247.836 85.7371 248.297 74.334C246.329 79.02 243.103 83.1714 239.362 82.7616Z" fill="url(#paint2_radial_40_1873)"/>
<path d="M134.608 134.681C111.81 134.681 99.8082 130.138 93.7807 126.325C87.186 122.174 86.0514 118.058 86.0159 117.88C85.9982 117.791 86.0159 117.719 86.0868 117.666L92.1852 112.695C92.2384 112.659 92.2916 112.641 92.3625 112.659C92.398 112.659 96.0854 113.407 100.695 113.407C106.58 113.407 114.327 112.178 117.784 106.37C117.82 106.298 117.908 106.263 117.979 106.263C118.05 106.263 118.121 106.316 118.157 106.37C119.965 109.826 122.34 111.608 125.638 112.035C126.081 112.089 126.542 112.125 127.003 112.125C132.8 112.125 139.288 107.617 145.546 103.252C151.946 98.7972 158.559 94.1825 164.639 94.1825C165.118 94.1825 165.596 94.2181 166.075 94.2716C172.333 95.0555 174.496 99.403 176.588 103.626C178.804 108.116 180.913 112.338 187.81 112.035C196.479 111.626 201.318 105.301 206.938 97.9598C210.076 93.8439 213.338 89.6034 217.628 85.7727C222.255 81.6747 226.031 79.7504 229.506 79.7504C231.722 79.7504 233.512 80.5165 235.249 81.2471C236.632 81.835 237.944 82.3874 239.38 82.5477C239.54 82.5656 239.699 82.5834 239.859 82.5834C242.802 82.5834 245.886 79.4653 248.12 74.2448C248.155 74.1557 248.262 74.1023 248.368 74.1201C248.474 74.1379 248.528 74.227 248.528 74.3339C248.297 80.2315 246.383 91.8484 236.189 103.323C223.584 117.523 202.541 126.966 173.645 131.35C159.108 133.559 145.972 134.681 134.608 134.681ZM86.4591 117.897C86.7073 118.628 88.2142 122.334 94.0644 125.986C100.056 129.746 111.97 134.236 134.626 134.236C145.972 134.236 159.073 133.113 173.592 130.922C202.382 126.557 223.336 117.167 235.888 103.038C245.372 92.3473 247.624 81.55 248.049 75.4386C246.684 78.3072 243.83 82.9932 239.876 82.9932C239.699 82.9932 239.522 82.9932 239.345 82.9753C237.838 82.815 236.508 82.2448 235.09 81.639C233.388 80.9264 231.633 80.178 229.506 80.178C226.137 80.178 222.45 82.0667 217.912 86.0934C213.639 89.8885 210.395 94.1112 207.275 98.2092C201.602 105.639 196.709 112.035 187.827 112.445C180.665 112.784 178.396 108.223 176.215 103.822C174.177 99.7059 172.067 95.4475 166.04 94.6992C165.596 94.6457 165.118 94.6101 164.657 94.6101C158.7 94.6101 152.141 99.1713 145.794 103.608C139.466 108.009 132.942 112.552 127.021 112.552C126.542 112.552 126.063 112.517 125.602 112.463C122.269 112.035 119.841 110.272 117.979 106.904C114.327 112.623 106.598 113.835 100.712 113.835C96.4754 113.835 93.0184 113.211 92.3802 113.087L86.4591 117.897Z" fill="#CEC784"/>
<path d="M239.362 82.7616C233.53 82.138 229.913 75.1536 217.77 85.9331C205.626 96.7126 201.371 111.608 187.827 112.232C174.265 112.873 178.839 96.0712 166.075 94.4854C153.276 92.8997 138.136 113.853 125.602 112.249C121.862 111.768 119.575 109.541 117.962 106.477C111.774 116.882 92.2915 112.855 92.2915 112.855L86.1931 117.826C86.1931 117.826 92.8765 143.394 173.592 131.136C240.887 120.926 247.836 85.7371 248.297 74.334C246.329 79.02 243.103 83.1714 239.362 82.7616ZM130.832 118.111C128.421 120.926 116.862 125.007 104.24 123.332C91.6179 121.657 101.35 117.844 114.115 114.423C119.22 113.051 118.547 116.971 124.007 116.347C129.467 115.724 133.261 115.296 130.832 118.111ZM187.384 125.096C184.743 125.595 185.186 116.347 189.245 115.813C193.287 115.26 190.025 124.597 187.384 125.096Z" fill="url(#paint3_radial_40_1873)"/>
<path d="M142.515 101.559C142.515 101.559 145.245 108.33 143.773 113.818C142.302 119.323 125.478 129.461 103.194 125.862C80.9102 122.263 77.3291 125.221 73.9786 140.437C70.6103 155.653 93.9402 164.098 130.938 157.541C167.936 151.002 194.723 129.728 176.074 103.074C176.074 103.074 176.765 76.6683 142.515 101.559Z" fill="url(#paint4_radial_40_1873)"/>
<path d="M107.449 160C92.0789 160 80.9103 156.633 76.0174 150.503C73.695 147.581 72.9327 144.178 73.7659 140.383C76.4074 128.481 79.2084 124.258 89.8097 124.258C93.1248 124.258 97.3972 124.704 103.23 125.63C106.314 126.129 109.434 126.379 112.501 126.379C130.407 126.379 142.408 118.022 143.561 113.746C144.997 108.383 142.337 101.684 142.302 101.63C142.267 101.541 142.302 101.434 142.373 101.381C152.159 94.2539 160.065 90.6548 165.827 90.6548C168.752 90.6548 171.128 91.5813 172.883 93.3987C176.215 96.8374 176.286 102.272 176.269 103.002C182.509 111.964 183.98 120.659 180.612 128.837C177.811 135.644 171.589 141.933 162.6 147.029C154.002 151.893 143.064 155.617 130.956 157.755C122.571 159.252 114.664 160 107.449 160ZM89.8097 124.704C79.5098 124.704 76.762 128.837 74.1737 140.49C73.3759 144.143 74.1028 147.421 76.3542 150.236C81.0876 156.169 92.4157 159.572 107.449 159.572C114.629 159.572 122.518 158.824 130.903 157.345C142.958 155.207 153.861 151.519 162.405 146.673C171.305 141.63 177.474 135.412 180.24 128.695C183.555 120.624 182.101 112.053 175.896 103.198C175.879 103.163 175.861 103.109 175.861 103.073C175.861 103.02 175.967 97.1938 172.599 93.7194C170.915 91.9733 168.646 91.1002 165.845 91.1002C160.189 91.1002 152.425 94.6459 142.763 101.648C143.153 102.699 145.316 108.846 143.968 113.889C143.277 116.454 139.501 119.715 134.324 122.192C128.031 125.203 120.284 126.842 112.501 126.842C109.417 126.842 106.279 126.592 103.177 126.094C97.3441 125.131 93.1071 124.704 89.8097 124.704Z" fill="#5A5A09"/>
<path opacity="0.5" d="M176.073 103.074C176.073 103.074 176.765 76.6683 142.497 101.559C142.497 101.559 145.227 108.33 143.755 113.818C142.284 119.323 125.46 129.461 103.176 125.862C80.8923 122.263 77.3113 125.221 73.9607 140.437C70.5924 155.653 93.9224 164.098 130.92 157.541C167.936 151.002 194.723 129.728 176.073 103.074ZM158.576 146.815C132.817 158.272 103.832 153.532 93.7451 151.038C83.6579 148.544 84.2784 144.232 87.1326 141.577C89.9868 138.922 89.7386 138.94 90.43 134.45C91.1213 129.96 92.2559 130.495 95.0038 127.59C97.7339 124.668 106.988 130.085 119.681 129.247C132.392 128.41 100.677 133.88 125.584 133.72C150.492 133.559 161.005 122.263 158.86 114.423C156.715 106.601 155.793 100.882 166.234 98.0848C170.507 96.9266 173.202 100.722 174.886 103.252C183.2 115.866 184.335 135.359 158.576 146.815Z" fill="url(#paint5_radial_40_1873)"/>
<path d="M127.907 129.978C127.783 129.978 127.676 129.906 127.605 129.782C127.534 129.621 127.605 129.443 127.765 129.372C127.924 129.301 143.755 122.281 143.809 111.483C143.809 111.305 143.95 111.163 144.128 111.163C144.305 111.163 144.447 111.305 144.447 111.483C144.394 122.708 128.687 129.657 128.013 129.942C127.995 129.978 127.96 129.978 127.907 129.978Z" fill="#5A5A09"/>
<g opacity="0.72">
<path opacity="0.52" d="M151.414 136.694C151.716 137.247 150.794 138.316 149.358 139.1C147.922 139.866 146.521 140.044 146.22 139.492C145.919 138.939 146.858 137.87 148.294 137.086C149.712 136.32 151.131 136.142 151.414 136.694Z" fill="#91884A"/>
<path opacity="0.72" d="M158.754 139.51C159.09 140.133 158.594 141.06 157.654 141.559C156.715 142.057 155.687 141.968 155.35 141.345C155.013 140.721 155.509 139.795 156.449 139.296C157.388 138.779 158.434 138.868 158.754 139.51Z" fill="#91884A"/>
<path opacity="0.49" d="M161.324 133.933C161.483 134.254 161.022 134.842 160.278 135.234C159.533 135.626 158.789 135.697 158.629 135.394C158.47 135.073 158.931 134.485 159.675 134.093C160.402 133.684 161.147 133.612 161.324 133.933Z" fill="#91884A"/>
<path opacity="0.72" d="M135.654 145.176C135.813 145.496 135.353 146.084 134.608 146.476C133.863 146.886 133.119 146.957 132.942 146.637C132.764 146.316 133.243 145.728 133.987 145.336C134.732 144.926 135.477 144.855 135.654 145.176Z" fill="#91884A"/>
<path opacity="0.64" d="M164.214 140.133C164.32 140.347 164.107 140.668 163.735 140.864C163.363 141.06 162.973 141.06 162.849 140.846C162.742 140.632 162.955 140.312 163.327 140.098C163.717 139.92 164.107 139.92 164.214 140.133Z" fill="#91884A"/>
<path opacity="0.76" d="M151.308 144.392C151.485 144.73 151.325 145.158 150.953 145.354C150.581 145.55 150.138 145.443 149.96 145.104C149.783 144.766 149.943 144.338 150.315 144.142C150.669 143.946 151.13 144.071 151.308 144.392Z" fill="#91884A"/>
<path opacity="0.23" d="M156.537 145.211C156.626 145.389 156.502 145.657 156.236 145.799C155.97 145.942 155.686 145.906 155.598 145.728C155.509 145.55 155.633 145.282 155.899 145.14C156.165 144.997 156.449 145.015 156.537 145.211Z" fill="#91884A"/>
<path opacity="0.39" d="M145.706 143.572C145.901 143.946 145.67 144.463 145.156 144.73C144.66 144.997 144.092 144.908 143.897 144.534C143.702 144.16 143.933 143.643 144.429 143.376C144.961 143.109 145.511 143.198 145.706 143.572Z" fill="#91884A"/>
<path d="M145.582 150.147C145.706 150.378 145.546 150.699 145.227 150.859C144.908 151.038 144.553 150.984 144.429 150.753C144.305 150.521 144.465 150.2 144.784 150.04C145.103 149.879 145.458 149.915 145.582 150.147Z" fill="#91884A"/>
<path opacity="0.33" d="M154.374 132.864C154.534 133.167 154.428 133.541 154.144 133.683C153.86 133.844 153.506 133.719 153.329 133.416C153.169 133.113 153.275 132.739 153.559 132.597C153.86 132.436 154.215 132.561 154.374 132.864Z" fill="#91884A"/>
<path opacity="0.77" d="M141.398 138.477C141.575 138.797 141.167 139.35 140.511 139.706C139.855 140.062 139.182 140.08 139.004 139.759C138.827 139.439 139.235 138.886 139.891 138.53C140.547 138.191 141.22 138.156 141.398 138.477Z" fill="#91884A"/>
<path opacity="0.77" d="M169.763 134.485C169.94 134.824 169.692 135.305 169.195 135.572C168.699 135.839 168.167 135.768 167.99 135.447C167.812 135.109 168.061 134.628 168.557 134.361C169.053 134.093 169.585 134.147 169.763 134.485Z" fill="#91884A"/>
<path d="M139.164 146.939C139.253 147.1 139.075 147.349 138.774 147.51C138.473 147.67 138.171 147.67 138.083 147.51C137.994 147.349 138.171 147.1 138.473 146.922C138.774 146.779 139.093 146.779 139.164 146.939Z" fill="#91884A"/>
<path opacity="0.39" d="M166.217 129.496C166.306 129.657 166.128 129.906 165.827 130.067C165.526 130.227 165.224 130.227 165.136 130.067C165.047 129.906 165.224 129.657 165.508 129.496C165.827 129.318 166.128 129.318 166.217 129.496Z" fill="#91884A"/>
<path opacity="0.23" d="M132.746 140.401C132.835 140.561 132.658 140.81 132.374 140.971C132.073 141.131 131.771 141.131 131.683 140.971C131.594 140.81 131.771 140.561 132.073 140.401C132.356 140.24 132.676 140.24 132.746 140.401Z" fill="#91884A"/>
<path d="M170.649 139.135C170.737 139.296 170.56 139.545 170.277 139.706C169.975 139.866 169.674 139.866 169.585 139.706C169.496 139.545 169.674 139.296 169.975 139.135C170.259 138.975 170.578 138.975 170.649 139.135Z" fill="#91884A"/>
<path opacity="0.27" d="M132.126 150.343C132.215 150.503 132.037 150.752 131.754 150.913C131.452 151.073 131.151 151.073 131.062 150.913C130.974 150.752 131.151 150.503 131.452 150.343C131.736 150.2 132.055 150.182 132.126 150.343Z" fill="#91884A"/>
<path opacity="0.27" d="M147.248 132.614C147.443 132.971 147.212 133.47 146.734 133.737C146.255 133.986 145.723 133.897 145.528 133.541C145.333 133.185 145.564 132.668 146.042 132.418C146.503 132.169 147.053 132.258 147.248 132.614Z" fill="#91884A"/>
</g>
<path opacity="0.5" d="M128.776 125.933C128.776 125.933 117.057 135.038 134.307 127.608C151.556 120.16 150.102 114.869 149.89 110.753C149.659 106.637 151.786 99.3674 159.977 96.1425C166.572 93.5411 171.925 97.4609 176.074 102.2C175.79 97.7995 172.918 79.4654 142.515 101.559C142.515 101.559 145.245 108.33 143.773 113.817C142.657 117.951 132.853 124.722 118.547 126.289C121.596 126.45 125.035 126.379 128.776 125.933Z" fill="url(#paint6_radial_40_1873)"/>
<path d="M95.0038 127.59C95.6775 124.846 90.696 122.851 84.2253 123.884C77.7546 124.917 76.1413 128.855 76.9568 131.011C77.7546 133.149 93.6388 133.131 95.0038 127.59Z" fill="#CCE3A7"/>
<path d="M82.8424 132.543C80.2896 132.543 77.1695 132.151 76.7617 131.082C76.3717 130.067 76.549 128.766 77.2049 127.626C77.8786 126.468 79.6868 124.401 84.2075 123.67C85.3598 123.492 86.5121 123.385 87.6112 123.385C90.9263 123.385 93.6742 124.258 94.7733 125.666C95.2342 126.272 95.3938 126.949 95.2165 127.626C94.2592 131.51 86.9907 132.543 82.8424 132.543ZM87.5935 123.813C86.5121 123.813 85.3952 123.902 84.2606 124.08C79.9173 124.775 78.1977 126.717 77.5595 127.822C76.9567 128.855 76.8149 130.013 77.1518 130.922C77.3645 131.51 79.4387 132.116 82.8424 132.116C88.0544 132.116 94.011 130.69 94.791 127.537C94.9328 126.967 94.8087 126.432 94.4187 125.933C93.4082 124.632 90.7845 123.813 87.5935 123.813Z" fill="#BFB660"/>
<path d="M89.2068 136.428C90.1996 132.312 88.1077 130.993 83.4098 129.657C78.7119 128.303 74.2799 130.298 73.6595 135.84C73.039 141.381 87.9481 141.612 89.2068 136.428Z" fill="#CCE3A7"/>
<path d="M81.1584 140.383C78.0914 140.383 75.4145 139.528 74.209 138.174C73.6063 137.497 73.3404 136.695 73.4467 135.822C73.9077 131.653 76.6732 129.051 80.6443 129.051C81.5661 129.051 82.5057 129.194 83.463 129.461C88.3027 130.833 90.4301 132.241 89.4018 136.481C88.7636 139.172 84.8103 140.383 81.1584 140.383ZM80.6443 129.479C76.8505 129.479 74.3331 131.866 73.8722 135.875C73.7836 136.624 74.014 137.301 74.5281 137.889C75.6627 139.172 78.2155 139.956 81.1761 139.956C84.5444 139.956 88.4268 138.833 89.0118 136.392C89.9514 132.472 88.0368 131.207 83.3566 129.871C82.4348 129.604 81.5129 129.479 80.6443 129.479Z" fill="#BFB660"/>
<path d="M86.2108 140.918C87.7 138.869 81.5307 136.588 78.251 136.446C74.9891 136.285 70.7167 137.283 70.2912 142.04C69.8834 146.78 83.9062 144.089 86.2108 140.918Z" fill="#CCE3A7"/>
<path d="M74.865 144.82C73.429 144.82 71.5144 144.606 70.6103 143.608C70.2202 143.18 70.043 142.628 70.0961 142.005C70.5571 136.766 75.5209 136.214 77.6305 136.214C77.8432 136.214 78.0737 136.214 78.2864 136.232C80.9456 136.356 85.679 137.907 86.5299 139.688C86.7427 140.152 86.7072 140.633 86.4058 141.042C84.8635 143.127 78.836 144.82 74.865 144.82ZM77.6305 136.624C71.8689 136.624 70.6989 140.009 70.5216 142.04C70.4862 142.539 70.6103 142.967 70.9294 143.305C71.5676 144 72.9326 144.374 74.8827 144.374C79.2083 144.374 84.7394 142.592 86.069 140.775C86.2817 140.472 86.3172 140.169 86.1576 139.849C85.3953 138.245 80.8393 136.766 78.2864 136.641C78.056 136.641 77.8432 136.624 77.6305 136.624Z" fill="#BFB660"/>
<path d="M85.9095 124.454C81.1762 124.561 75.7692 127.946 82.7008 127.59C89.6324 127.234 95.9613 124.222 85.9095 124.454Z" fill="#C9C57D"/>
<path d="M86.2107 132.134C83.2501 130.78 77.5595 128.481 76.0349 133.078C74.4926 137.693 86.4412 133.88 86.4412 133.88C86.4412 133.88 88.1785 133.042 86.2107 132.134Z" fill="#C9C57D"/>
<path d="M83.4098 138.958C80.3606 137.746 74.6522 135.911 72.8439 139.813C71.0357 143.715 88.214 140.864 83.4098 138.958Z" fill="#C9C57D"/>
<path d="M237.731 78.539C237.731 78.539 243.192 82.7618 238.99 96.9266C238.99 96.9266 248.031 91.8486 256.027 95.4477C264.004 99.0468 274.641 116.045 257.923 136.855C253.509 142.343 255.193 137.283 230.8 138.12C206.424 138.958 194.883 140.9 191.905 127.982C191.284 125.238 192.171 114.12 202.329 104.036C202.346 104.036 215.66 70.2896 237.731 78.539Z" fill="url(#paint7_radial_40_1873)"/>
<path d="M253.988 139.652C253.225 139.652 252.339 139.51 251.08 139.314C248.439 138.904 244.007 138.227 236.207 138.227C234.505 138.227 232.679 138.263 230.817 138.316C228.353 138.405 226.031 138.494 223.85 138.583C219.259 138.779 215.305 138.94 211.795 138.94C205.218 138.94 201.141 138.316 198.163 136.891C194.777 135.252 192.738 132.436 191.71 128.018C191.196 125.791 191.461 114.53 202.169 103.911C202.4 103.323 205.059 96.873 209.703 90.5122C214.189 84.3652 221.493 77.0244 230.853 77.0244C233.14 77.0244 235.48 77.4699 237.82 78.3429C237.838 78.3429 237.855 78.3607 237.873 78.3785C238.104 78.5567 243.28 82.7616 239.345 96.5166C240.692 95.8574 244.947 93.9509 249.733 93.9509C252.038 93.9509 254.201 94.3963 256.115 95.2516C259.962 96.9799 264.625 101.933 266.326 109.096C267.816 115.296 267.585 125.167 258.083 136.98C256.487 138.958 255.636 139.652 253.988 139.652ZM236.189 137.799C244.007 137.799 248.474 138.494 251.134 138.886C252.375 139.082 253.261 139.207 253.988 139.207C255.388 139.207 256.133 138.708 257.746 136.695C267.124 125.024 267.355 115.278 265.901 109.185C264.235 102.165 259.696 97.3184 255.92 95.6257C254.059 94.7883 251.967 94.3607 249.698 94.3607C244.025 94.3607 239.132 97.069 239.079 97.1046C239.008 97.1402 238.901 97.1402 238.848 97.0868C238.777 97.0333 238.76 96.9442 238.777 96.8552C240.922 89.6213 240.479 85.0779 239.735 82.5122C238.99 79.9643 237.784 78.8774 237.607 78.7171C235.338 77.8796 233.051 77.452 230.835 77.452C213.249 77.452 202.63 103.84 202.524 104.107C202.524 104.125 202.506 104.16 202.47 104.178C192.631 113.924 191.426 124.989 192.1 127.929C194.156 136.891 200.343 138.53 211.76 138.53C215.27 138.53 219.223 138.37 223.797 138.174C225.995 138.085 228.318 137.978 230.764 137.906C232.661 137.835 234.487 137.799 236.189 137.799Z" fill="#5A5A09"/>
<path d="M228.282 119.626C228.211 119.626 228.123 119.608 228.07 119.537C227.945 119.412 227.945 119.216 228.052 119.091C228.123 119.002 235.781 110.61 239.096 95.412C239.132 95.2339 239.309 95.127 239.469 95.1626C239.646 95.1982 239.752 95.3764 239.717 95.5368C236.348 110.913 228.601 119.43 228.513 119.501C228.442 119.59 228.353 119.626 228.282 119.626Z" fill="#5A5A09"/>
<path d="M202.346 104.338C202.258 104.338 202.169 104.303 202.116 104.231C202.009 104.107 202.009 103.893 202.151 103.786C208.533 98.1022 215.27 95.2158 215.341 95.1801C215.5 95.1089 215.678 95.1801 215.749 95.3583C215.82 95.5187 215.749 95.6968 215.589 95.7681C215.518 95.8038 208.87 98.6545 202.559 104.249C202.488 104.32 202.417 104.338 202.346 104.338Z" fill="#9B954B"/>
<g opacity="0.72">
<path opacity="0.52" d="M207.399 112.374C207.877 112.659 207.753 113.799 207.115 114.94C206.477 116.08 205.555 116.775 205.076 116.49C204.598 116.223 204.722 115.065 205.36 113.924C205.998 112.802 206.92 112.107 207.399 112.374Z" fill="#91884A"/>
<path opacity="0.72" d="M214.047 111.412C214.596 111.715 214.703 112.588 214.277 113.336C213.852 114.085 213.072 114.423 212.522 114.12C211.973 113.8 211.866 112.944 212.292 112.196C212.717 111.43 213.497 111.091 214.047 111.412Z" fill="#91884A"/>
<path opacity="0.49" d="M213.09 106.37C213.373 106.53 213.32 107.136 213.001 107.724C212.664 108.312 212.168 108.668 211.884 108.508C211.6 108.347 211.654 107.741 211.99 107.153C212.327 106.566 212.806 106.209 213.09 106.37Z" fill="#91884A"/>
<path opacity="0.72" d="M200.361 124.864C200.644 125.025 200.591 125.63 200.254 126.218C199.918 126.806 199.439 127.163 199.155 127.002C198.872 126.842 198.925 126.236 199.244 125.648C199.581 125.06 200.077 124.704 200.361 124.864Z" fill="#91884A"/>
<path opacity="0.64" d="M218.248 109.648C218.426 109.755 218.443 110.076 218.284 110.378C218.124 110.681 217.841 110.824 217.646 110.735C217.468 110.628 217.451 110.307 217.61 110.004C217.787 109.684 218.071 109.541 218.248 109.648Z" fill="#91884A"/>
<path opacity="0.76" d="M211.157 117.951C211.458 118.129 211.547 118.503 211.387 118.788C211.228 119.091 210.856 119.18 210.554 119.02C210.253 118.859 210.164 118.485 210.324 118.182C210.483 117.879 210.856 117.773 211.157 117.951Z" fill="#91884A"/>
<path opacity="0.23" d="M215.305 116.383C215.465 116.472 215.5 116.721 215.376 116.917C215.27 117.113 215.039 117.22 214.88 117.113C214.72 117.024 214.685 116.775 214.791 116.579C214.915 116.383 215.146 116.294 215.305 116.383Z" fill="#91884A"/>
<path opacity="0.39" d="M206.743 119.626C207.062 119.804 207.151 120.285 206.938 120.677C206.707 121.069 206.264 121.247 205.945 121.051C205.626 120.873 205.537 120.392 205.75 120C205.98 119.608 206.424 119.447 206.743 119.626Z" fill="#91884A"/>
<path d="M209.934 124.383C210.129 124.49 210.182 124.793 210.04 125.042C209.898 125.292 209.615 125.399 209.42 125.292C209.225 125.185 209.171 124.882 209.313 124.633C209.455 124.383 209.739 124.276 209.934 124.383Z" fill="#91884A"/>
<path opacity="0.33" d="M207.612 108.437C207.877 108.579 207.984 108.9 207.86 109.131C207.736 109.363 207.417 109.417 207.151 109.274C206.885 109.114 206.778 108.811 206.902 108.579C207.027 108.347 207.346 108.276 207.612 108.437Z" fill="#91884A"/>
<path opacity="0.77" d="M201.141 117.737C201.424 117.897 201.407 118.45 201.123 118.966C200.839 119.483 200.361 119.786 200.077 119.608C199.793 119.447 199.811 118.895 200.095 118.378C200.396 117.862 200.857 117.577 201.141 117.737Z" fill="#91884A"/>
<path opacity="0.77" d="M219.4 103.323C219.702 103.483 219.755 103.947 219.542 104.338C219.312 104.713 218.904 104.891 218.603 104.73C218.319 104.57 218.248 104.107 218.461 103.733C218.691 103.341 219.117 103.163 219.4 103.323Z" fill="#91884A"/>
<path d="M203.765 124.704C203.906 124.775 203.906 125.042 203.782 125.274C203.658 125.505 203.428 125.63 203.286 125.559C203.144 125.47 203.144 125.22 203.268 124.989C203.392 124.739 203.623 124.614 203.765 124.704Z" fill="#91884A"/>
<path opacity="0.39" d="M214.383 101.203C214.525 101.274 214.525 101.541 214.401 101.773C214.277 102.004 214.047 102.129 213.905 102.058C213.763 101.986 213.763 101.719 213.887 101.488C214.029 101.238 214.242 101.113 214.383 101.203Z" fill="#91884A"/>
<path opacity="0.23" d="M195.911 122.619C196.053 122.69 196.053 122.958 195.929 123.189C195.805 123.421 195.574 123.546 195.432 123.474C195.291 123.385 195.291 123.136 195.415 122.904C195.557 122.673 195.769 122.548 195.911 122.619Z" fill="#91884A"/>
<path d="M222.361 106.298C222.503 106.388 222.503 106.637 222.379 106.869C222.237 107.1 222.024 107.225 221.882 107.136C221.741 107.065 221.741 106.815 221.865 106.566C221.989 106.352 222.219 106.227 222.361 106.298Z" fill="#91884A"/>
<path opacity="0.27" d="M200.432 129.996C200.573 130.067 200.573 130.334 200.449 130.566C200.325 130.797 200.095 130.922 199.953 130.851C199.811 130.78 199.811 130.512 199.935 130.281C200.077 130.049 200.29 129.924 200.432 129.996Z" fill="#91884A"/>
<path opacity="0.27" d="M202.399 111.162C202.719 111.34 202.789 111.804 202.594 112.16C202.382 112.534 201.956 112.695 201.637 112.516C201.318 112.338 201.229 111.875 201.442 111.519C201.637 111.127 202.08 110.966 202.399 111.162Z" fill="#91884A"/>
</g>
<path opacity="0.5" d="M256.026 95.4297C248.049 91.8306 238.99 96.9085 238.99 96.9085C243.191 82.7615 237.731 78.521 237.731 78.521C215.66 70.2715 202.329 104.018 202.329 104.018C192.171 114.084 191.266 125.22 191.905 127.964C194.865 140.882 206.406 138.958 230.8 138.102C255.193 137.265 253.509 142.325 257.923 136.837C274.641 116.027 264.004 99.0288 256.026 95.4297ZM226.758 112.588C216.671 124.828 194.759 131.474 198.109 116.775C202.01 99.688 227.91 90.7259 230.693 89.4252C242.27 84.0265 236.845 100.347 226.758 112.588ZM246.613 120.57C237.944 123.688 233.051 121.247 236.047 112.748C239.043 104.231 242.394 96.0533 245.815 95.4831C263.632 92.5254 266.681 112.713 265.405 119.091C264.146 125.488 255.282 117.47 246.613 120.57Z" fill="url(#paint8_radial_40_1873)"/>
<path opacity="0.5" d="M215.447 93.7194C209.828 96.4455 217.61 84.6504 227.378 82.6905C235.409 81.0691 239.061 85.0958 240.568 87.6794C240.674 80.8375 237.731 78.539 237.731 78.539C215.66 70.2896 202.329 104.036 202.329 104.036C201.903 104.463 201.478 104.909 201.07 105.336C203.712 102.628 206.761 100.258 210.094 98.7083C222.184 93.0958 221.067 90.9934 215.447 93.7194Z" fill="url(#paint9_radial_40_1873)"/>
<path opacity="0.5" d="M258.491 125.131C247.34 125.666 253.562 131.082 249.325 130.886C245.106 130.672 245.869 133.594 241.578 133.969C237.27 134.325 225.659 133.488 209.243 134.485C200.786 135.002 195.876 133.577 193.093 131.492C197.365 140.525 208.906 138.886 230.8 138.138C255.193 137.3 253.509 142.361 257.924 136.873C261.044 132.989 263.206 129.229 264.625 125.684C263.1 125.238 261.115 125.006 258.491 125.131Z" fill="url(#paint10_radial_40_1873)"/>
<path d="M257.64 132.668C255.229 132.08 247.712 130.744 245.035 134.45C242.358 138.156 248.191 140.9 253.385 140.9C258.597 140.918 261.912 133.719 257.64 132.668Z" fill="#CCE3A7"/>
<path d="M253.385 141.131C249.928 141.131 245.62 139.866 244.45 137.532C243.936 136.534 244.078 135.43 244.876 134.361C246.134 132.632 248.492 131.759 251.878 131.759C254.466 131.759 256.807 132.258 257.711 132.49C259.2 132.864 259.98 134.022 259.785 135.608C259.466 138.209 256.771 141.131 253.385 141.131ZM251.878 132.169C248.634 132.169 246.383 132.989 245.212 134.592C244.521 135.554 244.397 136.463 244.822 137.318C245.78 139.207 249.538 140.704 253.385 140.704C256.7 140.704 259.093 137.692 259.359 135.537C259.448 134.735 259.359 133.309 257.604 132.882C256.913 132.721 254.466 132.169 251.878 132.169Z" fill="#BFB660"/>
<path d="M263.49 125.327C259.838 124.971 253.811 124.739 251.985 128.392C250.177 132.044 254.502 133.719 257.729 134.467C260.955 135.216 263.012 132.989 264.27 130.459C265.529 127.911 266.327 125.612 263.49 125.327Z" fill="#CCE3A7"/>
<path d="M258.952 134.824C258.544 134.824 258.118 134.77 257.675 134.681C255.388 134.165 252.481 133.131 251.612 131.26C251.205 130.37 251.258 129.39 251.79 128.321C252.906 126.093 255.69 124.953 260.068 124.953C261.097 124.953 262.196 125.024 263.508 125.149C264.465 125.238 265.103 125.577 265.422 126.129C266.007 127.18 265.316 128.891 264.465 130.566C263.047 133.381 261.203 134.824 258.952 134.824ZM260.068 125.363C255.867 125.363 253.208 126.414 252.18 128.481C251.701 129.425 251.648 130.298 252.002 131.064C252.818 132.793 255.601 133.755 257.782 134.254C260.37 134.86 262.497 133.523 264.075 130.352C264.82 128.855 265.529 127.198 265.032 126.307C264.802 125.88 264.27 125.612 263.455 125.541C262.16 125.416 261.079 125.363 260.068 125.363Z" fill="#BFB660"/>
<path d="M262.373 126.182C259.377 126.129 253.456 126.343 255.051 127.929C256.629 129.514 262.462 130.94 263.401 129.194C264.341 127.447 264.11 126.218 262.373 126.182Z" fill="#C9C57D"/>
<path d="M255.53 135.358C252.942 134.824 245.23 134.414 248.333 135.84C251.435 137.265 257.108 138.619 257.977 137.336C258.827 136.089 257.179 135.715 255.53 135.358Z" fill="#C9C57D"/>
<path d="M235.781 56.1429C235.781 56.1429 243.652 53.8088 248.12 44.526C252.605 35.2253 256.257 51.7955 248.12 62.6284C248.12 62.6284 238.263 60.8111 235.781 56.1429Z" fill="#C9C57D"/>
<path d="M248.12 62.8421C248.102 62.8421 248.102 62.8421 248.084 62.8421C248.067 62.8421 245.567 62.3788 242.819 61.3454C239.079 59.9557 236.668 58.2452 235.604 56.2496C235.586 56.1962 235.569 56.1249 235.604 56.0715C235.622 56.018 235.675 55.9646 235.728 55.9467C235.799 55.9289 243.564 53.5414 247.943 44.4367C248.847 42.5481 249.769 41.5859 250.69 41.5859C251.116 41.5859 251.754 41.8176 252.286 42.8866C254.059 46.4501 253.385 55.9824 248.297 62.753C248.244 62.8064 248.191 62.8421 248.12 62.8421ZM236.083 56.2496C238.511 60.3476 246.879 62.1472 248.014 62.3788C253.296 55.234 253.35 46.0225 251.878 43.0648C251.648 42.5837 251.24 41.9957 250.673 41.9957C249.964 41.9957 249.113 42.9222 248.315 44.5971C244.308 52.9534 237.483 55.7686 236.083 56.2496Z" fill="#9B954B"/>
<path d="M235.781 56.1429C235.781 56.1429 243.652 53.8088 248.12 44.526C252.605 35.2253 256.257 51.7955 248.12 62.6284C248.12 62.6284 238.263 60.8111 235.781 56.1429Z" fill="url(#paint11_radial_40_1873)"/>
<path d="M243.688 52.9891C241.1 55.0737 241.224 57.1049 244.769 57.1049C248.315 57.1049 251.772 50.4768 250.992 45.7196C250.212 40.9445 248.297 49.2653 243.688 52.9891Z" fill="#5D5D5D"/>
<path d="M105.038 72.7838C130.105 84.8284 116.224 103.839 128.687 104.481C141.15 105.122 143.029 82.4586 166.678 82.7794C190.327 83.1001 181.977 105.746 188.749 106.708C195.539 107.67 205.945 94.2003 214.295 81.1936C222.663 68.2048 234.168 70.4854 238.104 75.2782C242.039 80.0889 247.251 72.6769 248.191 66.7081C248.51 64.7304 248.935 63.3762 249.325 62.6814C246.436 62.1468 244.521 60.3295 237.944 54.5745C230.693 48.2137 213.657 -5.34536 141.77 0.676914C89.1183 5.09562 72.2236 47.3941 66.9407 69.737C76.1237 67.2604 90.3061 65.6925 105.038 72.7838Z" fill="url(#paint12_radial_40_1873)"/>
<path d="M189.441 106.94C189.192 106.94 188.944 106.922 188.714 106.886C186.214 106.548 185.665 103.537 184.973 99.7595C183.697 92.7572 181.942 83.1715 166.66 82.9755C166.501 82.9755 166.341 82.9755 166.182 82.9755C153.01 82.9755 146.876 90.0846 141.451 96.3742C137.462 100.989 134.059 104.962 128.669 104.695C123.245 104.41 122.66 100.793 121.862 95.7862C120.798 89.0869 119.327 79.8931 104.932 72.98C97.8759 69.5947 90.2706 67.8664 82.3285 67.8664C77.2584 67.8664 72.0818 68.5612 66.9762 69.951C66.9053 69.9688 66.8344 69.951 66.7634 69.8976C66.7103 69.8441 66.6925 69.7728 66.7103 69.7016C69.334 58.5479 74.9006 42.3341 86.406 28.3653C100.056 11.7951 118.671 2.42316 141.735 0.481069C145.493 0.160356 149.198 0 152.762 0C174.833 0 193.66 6.05791 208.729 18.0312C221.28 27.9911 228.46 39.6793 233.211 47.412C235.32 50.833 236.845 53.3096 238.086 54.3964L239.469 55.608C244.911 60.3831 246.755 61.9866 249.361 62.4677C249.432 62.4677 249.485 62.5212 249.52 62.5924C249.556 62.6459 249.538 62.735 249.503 62.7884C249.255 63.216 248.794 64.3029 248.404 66.7439C247.624 71.5902 244.255 77.0245 240.887 77.0245C239.806 77.0245 238.813 76.4722 237.944 75.4031C236.065 73.1047 232.732 71.6971 229.24 71.6971C226.031 71.6971 219.844 72.9443 214.472 81.3007C203.517 98.3163 195.113 106.94 189.441 106.94ZM166.199 82.5479C166.359 82.5479 166.518 82.5479 166.696 82.5479C182.332 82.7617 184.122 92.5434 185.416 99.6882C186.072 103.305 186.604 106.174 188.802 106.477C194.192 107.225 202.985 98.4053 214.136 81.0512C219.613 72.5345 225.96 71.2517 229.257 71.2517C232.874 71.2517 236.331 72.7305 238.281 75.118C239.079 76.098 239.965 76.5791 240.905 76.5791C244.007 76.5791 247.269 71.2339 247.996 66.6548C248.262 64.98 248.616 63.6437 249.024 62.8062C246.436 62.2361 244.521 60.5612 239.203 55.9109L237.82 54.6993C236.544 53.5768 235.001 51.0824 232.874 47.6258C223.443 32.3029 203.818 0.4098 152.779 0.4098C149.234 0.4098 145.529 0.570156 141.806 0.890869C118.848 2.81514 100.322 12.1514 86.7605 28.6147C75.4324 42.3697 69.9013 58.3341 67.2421 69.4343C72.2768 68.098 77.347 67.4209 82.364 67.4209C90.377 67.4209 98.0355 69.1492 105.144 72.5702C119.734 79.5724 121.206 88.8909 122.305 95.6971C123.103 100.686 123.635 103.982 128.722 104.249C133.899 104.517 137.267 100.615 141.167 96.0713C146.344 90.049 152.815 82.5479 166.199 82.5479Z" fill="#204400"/>
<path opacity="0.6" d="M145.865 2.33408C122.447 3.11804 97.8581 20.7751 95.0571 35.3853C92.2561 50.0134 116.88 39.8931 124.273 62.1114C131.665 84.3296 134.821 89.6214 149.322 81.1225C163.824 72.6236 179.903 82.245 188.731 89.3185C197.56 96.392 207.133 81.6035 215.43 70.147C223.726 58.6726 238.547 63.8575 232.555 53.1849C226.598 42.5122 210.501 0.195993 145.865 2.33408Z" fill="url(#paint13_linear_40_1873)"/>
<path d="M138.349 8.6593C131.009 8.6593 126.595 7.07356 124.822 5.41654C124.255 4.88202 123.954 4.32968 123.954 3.81298C123.954 3.6348 124.095 3.49226 124.273 3.49226C124.45 3.49226 124.592 3.6348 124.592 3.81298C124.592 4.15151 124.84 4.56131 125.265 4.95329C127.145 6.71721 132.747 8.53458 142.302 7.87534C154.729 7.0201 160.899 3.54572 161.519 0.498947C161.555 0.320773 161.714 0.213869 161.891 0.249503C162.069 0.285138 162.175 0.445495 162.14 0.623668C161.519 3.67044 155.97 7.57244 142.355 8.51676C140.937 8.62367 139.607 8.6593 138.349 8.6593Z" fill="#204400"/>
<path d="M133.083 36.0089C109.754 36.0089 95.2167 29.8976 90.8379 23.127C90.7492 22.9844 90.7847 22.7884 90.9265 22.6815C91.0683 22.5925 91.2633 22.6281 91.352 22.7706C96.2272 30.3252 114.15 37.0245 143.171 35.0112C172.847 32.9443 194.723 18.7261 196.177 10.2272C196.213 10.049 196.372 9.94212 196.549 9.95994C196.727 9.99557 196.833 10.1559 196.815 10.3341C195.291 19.2428 173.663 33.5323 143.242 35.6526C139.678 35.902 136.292 36.0089 133.083 36.0089Z" fill="#204400"/>
<path d="M130.903 68.8109C103.389 68.8109 84.7573 61.1672 75.3793 45.969C75.2906 45.8265 75.3438 45.6305 75.4856 45.5236C75.6275 45.4345 75.8225 45.488 75.9111 45.6305C87.1506 63.8399 111.952 71.0737 149.659 67.1361C190.522 62.8599 220.021 40.8554 219.206 28.6505C219.188 28.4724 219.33 28.3298 219.507 28.312C219.667 28.312 219.826 28.4367 219.844 28.5971C220.287 35.1717 212.788 43.9557 200.255 51.528C186.161 60.0626 168.22 65.8176 149.73 67.7597C143.064 68.4545 136.789 68.8109 130.903 68.8109Z" fill="#204400"/>
<path d="M140.99 97.6391C134.395 97.6391 127.907 97.2293 121.667 96.4454C121.489 96.4275 121.365 96.2672 121.401 96.089C121.419 95.9108 121.578 95.8039 121.755 95.8218C128.847 96.7304 136.275 97.1224 143.809 96.9799C144.004 96.9799 144.128 97.1224 144.128 97.2828C144.128 97.461 143.986 97.6035 143.827 97.6035C142.869 97.6391 141.93 97.6391 140.99 97.6391Z" fill="#204400"/>
<path d="M176.482 93.862C176.34 93.862 176.216 93.7551 176.18 93.6125C176.145 93.4522 176.251 93.274 176.428 93.2384C206.069 86.8776 229.665 73.2651 239.54 56.8375C239.628 56.6949 239.823 56.6415 239.965 56.7306C240.107 56.8197 240.16 57.0156 240.072 57.1582C230.108 73.7283 206.353 87.4477 176.552 93.8441C176.535 93.862 176.517 93.862 176.482 93.862Z" fill="#204400"/>
<path d="M176.499 27.5814C176.375 27.5814 176.269 27.5102 176.198 27.3854C171.181 15.3409 157.654 5.07808 157.53 4.989C157.388 4.88209 157.353 4.6861 157.459 4.54356C157.566 4.40102 157.761 4.38321 157.903 4.49011C158.044 4.59702 171.695 14.9489 176.783 27.1716C176.854 27.332 176.783 27.5102 176.605 27.5814C176.57 27.5814 176.535 27.5814 176.499 27.5814Z" fill="#204400"/>
<path d="M124.291 35.7058C124.273 35.7058 124.273 35.7058 124.291 35.7058C124.096 35.688 123.971 35.5454 123.971 35.3673C124.769 18.4408 130.513 7.58997 130.566 7.48307C130.655 7.32271 130.832 7.26926 130.992 7.35835C131.134 7.44743 131.204 7.62561 131.116 7.78596C131.063 7.89287 125.39 18.6189 124.592 35.3851C124.592 35.5811 124.45 35.7058 124.291 35.7058Z" fill="#204400"/>
<path d="M165.313 65.1936C165.153 65.1936 165.011 65.0689 164.994 64.9085C163.221 48.3206 157.052 33.6747 156.998 33.5322C156.928 33.3718 156.998 33.1936 157.158 33.1224C157.318 33.0511 157.513 33.1224 157.583 33.2827C157.637 33.4252 163.859 48.1602 165.632 64.8373C165.65 65.0154 165.526 65.1758 165.348 65.1936C165.331 65.1936 165.313 65.1936 165.313 65.1936Z" fill="#204400"/>
<path d="M217.628 35.7061C217.539 35.7061 217.451 35.6705 217.38 35.5814C206.388 21.9333 193.288 16.3387 193.163 16.2852C193.004 16.2139 192.915 16.0358 192.986 15.8754C193.057 15.7151 193.234 15.6438 193.394 15.6972C193.518 15.7507 206.761 21.3988 217.858 35.1894C217.965 35.332 217.947 35.528 217.823 35.6349C217.752 35.6883 217.699 35.7061 217.628 35.7061Z" fill="#204400"/>
<path d="M212.629 80.9976C212.487 80.9976 212.363 80.9085 212.327 80.7838C207.257 64.8907 197.95 52.757 197.861 52.6323C197.755 52.4898 197.773 52.2938 197.915 52.1869C198.056 52.08 198.251 52.0978 198.358 52.2403C198.446 52.3651 207.824 64.57 212.93 80.5878C212.983 80.7481 212.895 80.9263 212.735 80.9798C212.682 80.9976 212.646 80.9976 212.629 80.9976Z" fill="#204400"/>
<path d="M137.498 97.3364C137.338 97.3364 137.196 97.2117 137.179 97.0514C135.973 86.0937 137.161 68.4901 137.179 68.3297C137.196 68.1516 137.32 68.0269 137.515 68.0269C137.693 68.0447 137.817 68.1872 137.817 68.3654C137.817 68.5436 136.611 86.0937 137.817 96.9801C137.835 97.1583 137.71 97.3008 137.533 97.3186C137.515 97.3364 137.498 97.3364 137.498 97.3364Z" fill="#204400"/>
<path d="M90.4303 60.1872C90.4125 60.1872 90.3771 60.1872 90.3594 60.1872C90.1998 60.1338 90.0934 59.9734 90.1289 59.8131C94.2418 42.6727 100.606 30.2362 100.659 30.1115C100.73 29.9511 100.925 29.8977 101.085 29.969C101.244 30.0402 101.297 30.2362 101.227 30.3966C101.156 30.5213 94.8445 42.9044 90.7494 59.9556C90.6962 60.0981 90.5721 60.1872 90.4303 60.1872Z" fill="#204400"/>
<path opacity="0.15" d="M134.679 37.5946C146.184 36.9888 155.367 34.7438 157.708 41.8708C160.065 48.9977 166.997 63.6436 150.28 65.2115C133.562 66.7616 130.885 65.2294 123.315 53.4699C115.746 41.7104 100.925 45.5233 100.925 39.9643C100.925 34.4231 105.02 34.2628 112.111 35.6882C119.22 37.1314 128.847 37.9153 134.679 37.5946Z" fill="#FAFF8D"/>
<path opacity="0.15" d="M167.103 33.4078C163.026 35.6171 163.93 39.2875 165.313 47.0915C166.696 54.8777 166.696 61.8621 179.938 57.0158C193.181 52.1873 212.097 42.6728 210.519 33.4078C208.941 24.1427 200.006 19.0291 184.441 25.6928C168.894 32.3743 169.568 32.0536 167.103 33.4078Z" fill="#FAFF8D"/>
<path opacity="0.15" d="M149.765 9.55027C143.366 10.6906 131.789 8.49905 129.485 19.4924C127.162 30.4679 130.017 35.1895 145.67 33.4077C161.324 31.6438 174.46 27.5102 169.107 19.4924C163.735 11.4567 160.367 7.66163 149.765 9.55027Z" fill="#FAFF8D"/>
<path opacity="0.15" d="M116.543 13.149C110.87 17.1935 101.492 25.9953 108.867 30.2358C116.242 34.4764 121.933 31.2514 124.273 21.5232C126.631 11.7771 126.737 5.86168 116.543 13.149Z" fill="#FAFF8D"/>
<path opacity="0.15" d="M185.292 9.88857C177.031 6.52108 166.855 3.61685 164.409 5.95093C161.962 8.30282 171.128 13.1491 174.851 17.6748C178.573 22.2182 180.984 22.3251 186.551 17.6748C192.118 13.0422 187.668 10.8685 185.292 9.88857Z" fill="#FAFF8D"/>
<path opacity="0.15" d="M184.548 62.1291C173.698 66.4052 153.861 68.9353 147.603 69.8796C141.345 70.8418 141.433 80.1781 149.535 77.256C157.637 74.3161 173.237 74.2627 188.022 80.2315C202.79 86.2181 206.53 72.3028 201.478 64.285C196.425 56.2493 190.008 59.9732 184.548 62.1291Z" fill="#FAFF8D"/>
<path opacity="0.15" d="M208.516 47.9288C204.704 51.8843 205.254 58.0313 208.516 63.1092C211.778 68.1872 216.511 64.2673 219.543 59.3498C222.592 54.45 224.382 42.833 221.741 39.7685C219.135 36.7039 213.657 42.5836 208.516 47.9288Z" fill="#FAFF8D"/>
<path opacity="0.5" d="M237.944 54.5567C237.324 54.0043 236.615 53.1135 235.817 51.9197C223.797 80.1246 143.72 66.6012 118.653 45.4876C103.336 32.6057 103.443 20.0622 106.953 11.1001C80.9635 26.1201 70.8232 53.3095 66.9585 69.7192C76.1416 67.2426 90.3061 65.6747 105.056 72.766C130.123 84.8106 116.242 103.822 128.705 104.463C141.168 105.105 143.047 82.4408 166.696 82.7616C190.345 83.0823 181.995 105.728 188.767 106.69C195.557 107.652 205.963 94.1825 214.313 81.1758C222.68 68.187 234.186 70.4676 238.121 75.2605C242.057 80.0711 247.269 72.6591 248.209 66.6903C248.528 64.7126 248.953 63.3584 249.343 62.6636C246.436 62.1469 244.521 60.3117 237.944 54.5567Z" fill="url(#paint14_radial_40_1873)"/>
<path opacity="0.32" d="M203.605 20.5258C192.029 7.78639 158.044 -0.855038 135.743 7.35877C113.441 15.5726 148.17 35.4033 180.754 41.1761C213.356 46.949 218.763 37.2029 203.605 20.5258Z" fill="#FAFF8D"/>
<path d="M56.5342 73.6748C56.5342 73.6748 79.9705 60.7394 105.038 72.784C130.105 84.8285 116.224 103.84 128.687 104.481C141.149 105.122 143.029 82.4588 166.678 82.7795C190.327 83.1002 181.977 105.746 188.749 106.708C195.539 107.67 205.945 94.2004 214.295 81.1938C222.662 68.2049 234.168 70.4855 238.103 75.2784C242.039 80.0891 247.251 72.6771 248.191 66.7082C249.13 60.7394 251.027 60.4722 250.389 66.7082C249.751 72.9443 245.195 83.4031 239.344 82.7795C233.512 82.1559 229.895 75.1715 217.752 85.951C205.608 96.7305 201.353 111.626 187.809 112.249C174.247 112.891 178.821 96.0891 166.057 94.5033C153.275 92.8998 138.136 113.853 125.602 112.249C113.068 110.646 116.862 89.4254 107.555 82.7617C98.2479 76.1158 79.3323 69.2918 60.0975 77.6837L56.5342 73.6748Z" fill="url(#paint15_radial_40_1873)"/>
<path d="M127.003 112.552C126.524 112.552 126.045 112.517 125.584 112.463C118.44 111.555 116.455 104.25 114.54 97.1761C113.033 91.5993 111.473 85.8264 107.431 82.94C104.506 80.8554 93.7806 74.0135 78.7828 74.0135C72.3298 74.0135 66.0719 75.3142 60.1685 77.8977C60.0976 77.9333 59.9912 77.9155 59.9203 77.8443L56.357 73.8353C56.3215 73.7819 56.2861 73.7284 56.3038 73.6572C56.3038 73.6037 56.357 73.5325 56.4102 73.5146C56.5165 73.4612 67.5433 67.4567 82.3284 67.4567C90.3236 67.4567 97.9998 69.185 105.109 72.606C119.699 79.6082 121.17 88.9267 122.269 95.7329C123.067 100.722 123.599 104.018 128.687 104.285C133.863 104.552 137.232 100.65 141.132 96.1071C146.397 89.9957 152.956 82.3699 166.678 82.5659C182.314 82.7797 184.104 92.5614 185.398 99.7062C186.054 103.323 186.586 106.192 188.784 106.495C188.997 106.53 189.228 106.53 189.458 106.53C196.319 106.53 206.654 92.6861 214.135 81.0692C219.613 72.5525 225.96 71.2696 229.257 71.2696C232.874 71.2696 236.331 72.7485 238.281 75.136C239.079 76.116 239.965 76.597 240.904 76.597C244.007 76.597 247.269 71.2518 247.996 66.6728C248.173 65.5681 248.829 61.9155 249.91 61.9155C249.999 61.9155 250.158 61.9512 250.283 62.0937C250.743 62.6104 250.85 64.2496 250.602 66.7084C250.034 72.3921 245.833 82.9935 239.859 82.9935C239.681 82.9935 239.504 82.9935 239.327 82.9757C237.82 82.8153 236.49 82.2451 235.072 81.6394C233.37 80.9267 231.615 80.1783 229.488 80.1783C226.119 80.1783 222.432 82.067 217.894 86.0937C213.621 89.8888 210.377 94.1115 207.257 98.2095C201.584 105.639 196.691 112.036 187.809 112.446C180.647 112.784 178.378 108.223 176.198 103.822C174.159 99.7062 172.049 95.4478 166.022 94.6995C165.579 94.646 165.1 94.6104 164.639 94.6104C158.682 94.6104 152.123 99.1717 145.777 103.608C139.465 107.991 132.942 112.552 127.003 112.552ZM78.8005 73.5859C93.9224 73.5859 104.736 80.4812 107.697 82.6015C111.863 85.577 113.441 91.4211 114.965 97.0692C116.933 104.321 118.777 111.163 125.655 112.054C126.099 112.107 126.559 112.143 127.02 112.143C132.817 112.143 139.306 107.635 145.564 103.27C151.964 98.8153 158.576 94.2006 164.657 94.2006C165.135 94.2006 165.614 94.2362 166.093 94.2897C172.351 95.0737 174.513 99.4211 176.605 103.644C178.821 108.134 180.931 112.357 187.827 112.054C196.496 111.644 201.336 105.319 206.956 97.9779C210.093 93.8621 213.355 89.6215 217.645 85.8086C222.272 81.6928 226.048 79.7864 229.523 79.7864C231.739 79.7864 233.53 80.5525 235.267 81.283C236.65 81.871 237.962 82.4233 239.398 82.5837C241.968 82.8509 244.61 80.8376 246.826 76.9356C248.545 73.8888 249.875 69.8799 250.194 66.7084C250.46 64.018 250.247 62.7173 249.981 62.4144C249.963 62.3966 249.946 62.3788 249.91 62.3788C249.662 62.3788 248.935 63.4835 248.403 66.7797C247.623 71.6438 244.255 77.0781 240.887 77.0781C239.805 77.0781 238.813 76.5258 237.944 75.4567C236.065 73.1583 232.732 71.7507 229.24 71.7507C226.031 71.7507 219.844 72.9979 214.472 81.3543C203.038 99.1182 194.369 107.742 188.731 106.958C186.232 106.619 185.682 103.608 184.991 99.8309C183.714 92.8287 181.959 83.2429 166.678 83.0469C166.518 83.0469 166.359 83.0469 166.199 83.0469C153.027 83.0469 146.893 90.1561 141.469 96.4456C137.48 101.06 134.076 105.034 128.687 104.766C123.262 104.481 122.677 100.864 121.879 95.8576C120.816 89.1583 119.344 79.9645 104.949 73.0514C97.8935 69.6661 90.2882 67.9378 82.3461 67.9378C68.8551 67.9378 58.5375 72.9445 56.8711 73.8175L60.1685 77.5235C66.0719 74.8866 72.3475 73.5859 78.8005 73.5859Z" fill="#353806"/>
<path opacity="0.6" d="M141.433 98.7793C146.078 94.9308 153.258 83.1357 168.876 84.7214C184.494 86.3072 182.916 99.1178 184.494 103.964C186.072 108.81 185.044 111.358 182.154 107.866C179.282 104.374 179.761 90.9753 166.82 91.5811C153.896 92.1869 151.024 95.1089 145.44 98.7971C139.873 102.468 136.54 102.859 141.433 98.7793Z" fill="url(#paint16_linear_40_1873)"/>
<path opacity="0.6" d="M206.353 95.4833C206.353 95.4833 211.955 87.5189 215.093 82.6904C218.23 77.8441 223.372 71.2338 231.952 73.7995C240.532 76.3652 240.568 81.8173 233.973 79.3585C227.378 76.8997 220.783 75.7238 206.353 95.4833Z" fill="url(#paint17_linear_40_1873)"/>
<path opacity="0.6" d="M119.894 96.2138C118.6 91.2962 118.529 88.6771 116.082 90.1737C113.636 91.6704 117.554 104.659 121.011 108.169C124.485 111.697 131.24 108.437 132.995 107.457C134.732 106.459 127.606 110.628 124.503 107.011C121.915 103.982 120.727 99.3675 119.894 96.2138Z" fill="url(#paint18_linear_40_1873)"/>
<path opacity="0.6" d="M153.258 91.2785C153.258 91.2785 159.214 84.7574 170.667 85.9689C182.119 87.1805 182.154 99.6705 182.154 99.6705C182.154 99.6705 178.839 88.4456 170.117 87.2162C161.395 86.0046 153.258 91.2785 153.258 91.2785Z" fill="url(#paint19_linear_40_1873)"/>
<path opacity="0.6" d="M215.447 83.2428C215.447 83.2428 221.351 69.6482 235.161 76.1337C235.161 76.1159 224.559 70.9845 215.447 83.2428Z" fill="url(#paint20_linear_40_1873)"/>
<path d="M32.5661 90.887C32.5661 90.887 34.0375 87.6264 34.8707 75.2611C35.7217 62.8959 39.7104 46.005 63.2531 48.1075C86.7958 50.2277 87.8417 51.279 92.256 50.0139C96.6702 48.7489 105.286 45.7912 113.494 54.6643C121.702 63.5373 121.064 77.132 115.604 87.2344C110.143 97.3369 105.516 99.76 105.516 99.76C105.516 99.76 91.8305 138.192 47.298 118.041C43.0787 116.134 24.9963 110.005 26.0599 99.76C26.6095 94.3079 29.4105 92.4549 32.5661 90.887Z" fill="url(#paint21_radial_40_1873)"/>
<path d="M71.1953 124.098C63.8737 124.098 55.8075 122.121 47.2094 118.236C46.7485 118.023 46.0926 117.755 45.348 117.452C39.2319 114.922 24.9077 109.025 25.8473 99.742C26.4146 94.2008 29.2688 92.2944 32.4066 90.7264C32.6016 90.1919 33.9135 86.4681 34.6758 75.2431C35.2254 67.3144 36.8209 61.5416 39.7105 57.1051C44.3552 50.0137 52.2796 46.9135 63.2709 47.8935C71.4789 48.624 76.8505 49.2298 80.7861 49.6752C84.7217 50.1028 86.9022 50.3523 88.5509 50.3523C89.8451 50.3523 90.8378 50.2097 92.2029 49.8177L92.7347 49.6752C94.7202 49.1051 97.4149 48.3033 100.482 48.3033C105.41 48.3033 109.842 50.3879 113.654 54.5215C117.518 58.7264 119.681 64.232 119.876 70.4859C120.053 76.134 118.6 82.1206 115.781 87.3411C110.658 96.82 106.314 99.546 105.676 99.9202C105.41 100.633 103.159 106.352 98.1417 111.983C93.2311 117.488 84.5621 124.098 71.1953 124.098ZM59.3885 48.1429C50.56 48.1429 44.0539 51.2431 40.0651 57.3367C37.2109 61.7019 35.6331 67.4035 35.1013 75.261C34.2681 87.5193 32.8321 90.8155 32.7789 90.9581C32.7612 90.9937 32.7257 91.0471 32.6726 91.065C29.6234 92.5973 26.8223 94.3968 26.2728 99.7777C25.3509 108.74 39.4801 114.566 45.5076 117.06C46.2521 117.363 46.9081 117.631 47.3867 117.844C55.9316 121.711 63.9446 123.653 71.1953 123.653C84.4026 123.653 92.9652 117.15 97.8403 111.68C103.123 105.746 105.304 99.742 105.322 99.6707C105.339 99.6173 105.375 99.5817 105.428 99.546C105.463 99.5282 110.073 97.016 115.426 87.1095C122.518 73.9959 119.486 61.4347 113.352 54.7888C109.576 50.6908 105.357 48.6953 100.5 48.6953C97.4858 48.6953 94.8266 49.4792 92.8588 50.0316L92.3447 50.1919C90.9265 50.6017 89.8982 50.7443 88.5686 50.7443C86.8845 50.7443 84.7217 50.4948 80.7506 50.0672C76.8328 49.6218 71.4435 49.0338 63.2532 48.3033C61.9059 48.1964 60.6117 48.1429 59.3885 48.1429Z" fill="#5A5A09"/>
<path opacity="0.5" d="M43.398 91.0643C50.9678 88.3917 51.801 78.8416 47.0676 69.4519C43.8766 63.0911 39.9588 61.6122 37.7428 61.3271C35.8813 65.8349 35.1722 70.8416 34.8708 75.2603C34.0376 87.6256 32.5662 90.8862 32.5662 90.8862C32.5485 90.8862 32.5485 90.904 32.5308 90.904C35.1545 91.1178 37.2996 93.2202 43.398 91.0643Z" fill="#C9C57D"/>
<path opacity="0.5" d="M113.494 54.6636C105.304 45.7906 96.6703 48.7483 92.256 50.0133C87.8418 51.2783 86.7958 50.2271 63.2532 48.1068C51.4996 47.0556 44.6034 50.7438 40.5615 56.2316C43.0256 54.04 46.6067 51.7594 50.5246 52.187C53.166 52.4721 53.8219 54.5567 55.6302 59.8485C57.4384 65.1581 69.8834 78.432 81.5484 72.6592C93.2133 66.8863 85.1294 58.0133 90.4301 54.0578C95.7307 50.1024 103.088 51.8485 108.158 56.9977C113.228 62.1469 111.491 73.5322 103.301 76.7215C95.1102 79.893 86.7427 81.55 82.6475 75.2605C82.6475 75.2605 82.2575 78.6458 84.9344 80.6948C84.9344 80.6948 83.0198 96.6414 62.5795 104.392C42.1393 112.142 30.4034 105.799 32.9207 98.922C32.9207 98.922 31.3607 98.922 30.7225 101.612C30.297 103.376 27.301 104.659 26.1487 101.987C27.6556 110.913 43.4157 116.276 47.2981 118.04C91.8306 138.174 105.517 99.7594 105.517 99.7594C105.517 99.7594 110.143 97.3362 115.604 87.2338C121.064 77.1135 121.702 63.5367 113.494 54.6636Z" fill="url(#paint22_radial_40_1873)"/>
<path d="M60.3281 39.2872C54.5842 41.7104 50.3295 57.354 60.7358 67.1179C71.1421 76.8997 79.5983 73.6035 83.1262 70.7171C86.654 67.8128 89.1182 56.9264 79.1906 46.4676C69.2452 36.0088 62.9341 38.1825 60.3281 39.2872Z" fill="url(#paint23_radial_40_1873)"/>
<path d="M74.6522 73.8886C69.9898 73.8886 65.2564 71.6614 60.594 67.2784C55.5593 62.5389 53.2901 55.5545 54.5133 48.5879C55.3465 43.9376 57.598 40.2138 60.2572 39.0913C61.3386 38.628 62.8455 38.1113 64.7778 38.1113C69.263 38.1113 74.1559 40.873 79.3324 46.3251C85.9449 53.2917 86.6008 59.8842 86.3881 63.1982C86.1754 66.5122 84.9876 69.4521 83.2503 70.8775C82.1511 71.7862 79.1197 73.8886 74.6522 73.8886ZM64.7778 38.5389C62.9164 38.5389 61.5336 39.02 60.4167 39.5011C57.9171 40.5523 55.7188 44.2405 54.9388 48.677C53.7333 55.5011 55.9493 62.343 60.8954 66.9755C65.4869 71.2873 70.1139 73.461 74.67 73.461C78.9956 73.461 81.9384 71.4298 83.0021 70.5568C84.2962 69.5055 85.7499 67.0111 85.9804 63.1804C86.1754 59.9376 85.5372 53.4699 79.031 46.628C73.9254 41.2472 69.1389 38.5389 64.7778 38.5389Z" fill="#C4C4C4"/>
<path d="M47.4932 73.6749C43.9299 63.1805 38.8243 61.2918 35.3496 62.1293C31.875 62.9667 28.1875 76.3832 32.2472 85.9155C36.3069 95.4299 53.7157 92.009 47.4932 73.6749Z" fill="url(#paint24_radial_40_1873)"/>
<path d="M40.0475 91.2785C36.5019 91.2785 33.4349 89.2473 32.0522 85.9867C28.8789 78.5213 30.4744 69.0959 32.6195 64.8019C33.4527 63.1271 34.3923 62.1293 35.2964 61.9155C35.7928 61.7908 36.3069 61.7373 36.821 61.7373C39.3738 61.7373 44.1958 63.2874 47.6882 73.6037C49.656 79.3765 49.4432 84.3654 47.0854 87.6616C45.4545 89.96 42.8839 91.2785 40.0475 91.2785ZM36.821 62.1649C36.3423 62.1649 35.8637 62.2184 35.4027 62.3253C34.6227 62.5213 33.7718 63.4656 32.9917 64.9979C30.8821 69.2206 29.3043 78.4856 32.4245 85.8264C33.7363 88.9266 36.6614 90.8509 40.0297 90.8509C42.7421 90.8509 45.1885 89.5859 46.7309 87.4121C49 84.2406 49.1951 79.3765 47.2804 73.7462C43.8767 63.6616 39.2674 62.1649 36.821 62.1649Z" fill="#C4C4C4"/>
<path d="M86.2108 80.6948C82.6475 97.1403 68.7311 104.606 56.4102 107.296C57.8107 107.278 59.2112 107.243 60.5053 107.225C67.5965 107.136 75.379 112.428 81.8497 108.33C91.2632 102.379 86.2108 80.6948 86.2108 80.6948Z" fill="#7A1010"/>
<path d="M45.2595 108.864C41.5012 108.864 38.5229 108.383 36.9451 107.689C34.1441 106.423 32.389 104.856 31.7685 102.985C31.1481 101.114 31.9104 99.6529 31.9458 99.5994C32.0345 99.4391 32.2295 99.3856 32.3713 99.4747C32.5308 99.5638 32.584 99.7598 32.4954 99.9023C32.4954 99.9202 31.8217 101.185 32.3713 102.789C32.9386 104.464 34.5695 105.925 37.1933 107.101C41.3771 108.971 55.7012 109.167 68.1285 102.842C77.6306 98.0137 83.7822 90.3166 85.8918 80.6239C85.9273 80.4458 86.1046 80.3389 86.2641 80.3745C86.4414 80.4101 86.5478 80.5883 86.5123 80.7487C84.3672 90.6373 78.1093 98.4769 68.4298 103.395C60.47 107.475 51.7124 108.864 45.2595 108.864Z" fill="#5A5A09"/>
<path d="M77.1341 102.824C81.1051 100.775 85.1826 96.3385 87.5758 93.4877C87.6467 86.8418 86.2285 80.6948 86.2285 80.6948C83.8707 91.5991 76.9568 98.5478 68.9792 102.771C70.362 103.786 73.1098 104.926 77.1341 102.824Z" fill="white"/>
<path d="M72.8085 104.214C70.9825 104.214 69.6529 103.519 68.8374 102.949C68.7842 102.895 68.7488 102.842 68.7488 102.771C68.7488 102.699 68.7842 102.628 68.8551 102.593C78.1446 97.6572 83.9061 90.2808 85.998 80.6594C86.0158 80.5703 86.1044 80.499 86.2108 80.499C86.3349 80.499 86.388 80.5703 86.4235 80.6594C86.4412 80.7128 87.8595 86.9133 87.7886 93.5057C87.7886 93.5592 87.7708 93.5948 87.7354 93.6482C85.0762 96.8197 81.1051 101.025 77.2404 103.038C75.6981 103.822 74.209 104.214 72.8085 104.214ZM69.3693 102.806C70.1316 103.305 71.2839 103.804 72.8085 103.804C74.1381 103.804 75.5563 103.412 77.0454 102.646C81.0342 100.579 85.2003 96.0001 87.3631 93.4166C87.4163 88.3921 86.6008 83.6349 86.2108 81.675C83.9593 90.8687 78.2864 97.9779 69.3693 102.806Z" fill="#C4C4C4"/>
<path d="M79.9352 114.708C76.4959 114.708 74.4395 113.194 74.3154 113.105C74.1736 112.998 74.1559 112.802 74.2622 112.659C74.3686 112.517 74.5636 112.481 74.7054 112.588C74.7409 112.624 78.3396 115.225 83.8885 113.408C89.5437 111.555 93.1779 102.361 91.671 97.1046C91.6178 96.9443 91.7242 96.7661 91.8838 96.7126C92.0433 96.6592 92.2206 96.7661 92.2738 96.9264C93.887 102.539 90.1287 112.018 84.0835 113.995C82.5412 114.512 81.1584 114.708 79.9352 114.708Z" fill="#5A5A09"/>
<path d="M90.8378 81.4433C84.1721 81.4433 83.1439 77.5056 83.0907 77.3096C83.0553 77.1315 83.1439 76.9711 83.3212 76.9355C83.4985 76.8998 83.658 76.9889 83.6935 77.1671C83.7466 77.3987 85.094 82.2451 94.9152 80.392C95.0748 80.3564 95.2521 80.4811 95.2875 80.6415C95.323 80.8197 95.2166 80.98 95.0393 81.0157C93.4438 81.3186 92.0433 81.4433 90.8378 81.4433Z" fill="#9B954B"/>
<path d="M37.1931 56.0002C37.1931 56.0002 32.3711 49.6929 28.3646 51.4924C24.3758 53.292 26.574 60.7931 26.574 60.7931C26.574 60.7931 25.3154 46.3432 37.1931 56.0002Z" fill="#7A7E36"/>
<path d="M26.5741 61.007C26.4855 61.007 26.3969 60.9536 26.3791 60.8467C26.3614 60.7754 25.8118 58.9224 25.7587 56.8199C25.6877 53.987 26.5564 52.0627 28.276 51.2965C28.7724 51.0649 29.322 50.958 29.8893 50.958C33.4171 50.958 36.945 55.3411 37.335 55.8221C37.3882 55.8578 37.4236 55.9291 37.4236 55.9825C37.4236 56.1072 37.3173 56.1963 37.2109 56.1963C37.2109 56.1963 37.2109 56.1963 37.1932 56.1963C37.14 56.1963 37.1045 56.1785 37.0691 56.1429C32.9562 52.811 29.9779 52.0092 28.3115 53.8266C26.4146 55.9112 26.8046 60.7041 26.8046 60.7397C26.8223 60.8466 26.7337 60.9536 26.6451 60.9714C26.6096 61.007 26.5919 61.007 26.5741 61.007ZM29.8893 51.3856C29.3752 51.3856 28.8965 51.4925 28.4533 51.6885C25.9714 52.811 26.0246 56.3567 26.3614 58.6551C26.45 57.0337 26.8223 54.86 27.9924 53.5593C29.5524 51.8489 32.123 52.1518 35.5799 54.5037C34.1794 53.1317 31.9989 51.3856 29.8893 51.3856Z" fill="#4C4E04"/>
<path d="M53.0596 39.3408C53.0596 39.3408 51.5882 31.9466 56.942 29.6303C62.2959 27.3141 68.3056 35.8664 68.3056 35.8664C68.3056 35.8664 62.8632 30.0579 57.8994 31.8575C53.4496 33.4611 53.0596 39.3408 53.0596 39.3408Z" fill="#7A7E36"/>
<path d="M53.0597 39.5547C52.971 39.5547 52.8824 39.4835 52.8469 39.3765C52.8292 39.3053 51.3933 31.7863 56.8534 29.4166C57.4917 29.1494 58.183 29.0068 58.8744 29.0068C63.6964 29.0068 68.2702 35.4567 68.4652 35.724C68.5361 35.8131 68.5184 35.9378 68.4298 36.0091C68.3411 36.0803 68.217 36.0625 68.1461 35.9912C68.1107 35.9378 64.0864 31.6973 59.9027 31.6973C59.229 31.6973 58.5731 31.8042 57.9703 32.0358C53.7156 33.5859 53.2724 39.2875 53.2724 39.3587C53.2724 39.4656 53.1838 39.5547 53.0597 39.5547C53.0774 39.5547 53.0774 39.5547 53.0597 39.5547ZM58.8922 29.4345C58.254 29.4345 57.6157 29.5592 57.0307 29.8086C54.8856 30.7351 53.5915 32.6059 53.2015 35.3676C53.0774 36.2585 53.0774 37.1137 53.1129 37.7908C53.5561 35.8843 54.7438 32.7485 57.8285 31.626C58.4844 31.3944 59.1935 31.2696 59.9027 31.2696C62.42 31.2696 64.831 32.695 66.462 33.9244C64.7069 32.018 61.7995 29.4345 58.8922 29.4345Z" fill="#4C4E04"/>
<path d="M51.3933 93.5059C51.7656 94.5393 51.6946 95.5371 51.216 95.7153C50.7373 95.8934 50.0282 95.1986 49.6559 94.1473C49.2837 93.0961 49.3546 92.1161 49.8332 91.938C50.3119 91.7598 51.021 92.4725 51.3933 93.5059Z" fill="#AAA566"/>
<path d="M51.0564 95.9469C50.4891 95.9469 49.8332 95.2342 49.4609 94.2186C49.2659 93.6841 49.1773 93.1496 49.2127 92.7041C49.2482 92.2052 49.4432 91.8667 49.7623 91.742C50.365 91.5282 51.1805 92.2765 51.5883 93.4346C52.0315 94.6284 51.8896 95.6796 51.2869 95.9113C51.216 95.9291 51.1451 95.9469 51.0564 95.9469ZM49.9928 92.134C49.9573 92.134 49.9396 92.134 49.9041 92.1518C49.7623 92.2052 49.6559 92.4369 49.6205 92.7576C49.585 93.1496 49.6737 93.6128 49.8509 94.0939C50.2055 95.0917 50.826 95.644 51.1451 95.5371C51.4642 95.4124 51.5528 94.5571 51.1983 93.595C50.8614 92.6685 50.3296 92.134 49.9928 92.134Z" fill="#9B954B"/>
<path opacity="0.5" d="M51.3933 93.5059C51.7656 94.5393 51.6946 95.5371 51.216 95.7153C50.7373 95.8934 50.0282 95.1986 49.6559 94.1473C49.2837 93.0961 49.3546 92.1161 49.8332 91.938C50.3119 91.7598 51.021 92.4725 51.3933 93.5059Z" fill="#C9C57D"/>
<path d="M57.5448 90.8331C57.9171 91.8309 57.8285 92.7752 57.3498 92.9534C56.8712 93.1315 56.1975 92.4723 55.843 91.4745C55.4707 90.4768 55.5593 89.5324 56.038 89.3543C56.4989 89.1761 57.1903 89.8353 57.5448 90.8331Z" fill="#AAA566"/>
<path d="M57.1902 93.1849C56.6406 93.1849 56.0024 92.5079 55.6478 91.5279C55.2224 90.3876 55.3642 89.3542 55.9669 89.1404C56.552 88.9266 57.3497 89.6393 57.7575 90.7618C58.1652 91.9021 58.0411 92.9177 57.4384 93.1493C57.3497 93.1671 57.2788 93.1849 57.1902 93.1849ZM56.1974 89.5324C56.162 89.5324 56.1265 89.5324 56.1088 89.5502C55.8074 89.6571 55.701 90.4767 56.0379 91.4032C56.3924 92.3475 56.9774 92.8642 57.2788 92.7573C57.5979 92.6504 57.6865 91.8308 57.3497 90.9221C57.0306 90.0491 56.5165 89.5324 56.1974 89.5324Z" fill="#9B954B"/>
<path opacity="0.5" d="M57.5448 90.8331C57.9171 91.8309 57.8285 92.7752 57.3498 92.9534C56.8712 93.1315 56.1975 92.4723 55.843 91.4745C55.4707 90.4768 55.5593 89.5324 56.038 89.3543C56.4989 89.1761 57.1903 89.8353 57.5448 90.8331Z" fill="#C9C57D"/>
<path opacity="0.5" d="M53.4142 89.0158C53.4142 89.0158 53.5561 87.0915 55.3111 86.6461C56.8534 86.2719 60.5763 89.194 60.5763 89.194C60.5763 89.194 57.7753 85.1138 55.2757 85.6662C52.776 86.2541 53.4142 89.0158 53.4142 89.0158Z" fill="url(#paint25_radial_40_1873)"/>
<path opacity="0.5" d="M51.1627 90.2274C51.1627 90.2274 49.5849 88.802 48.3972 89.586C47.1917 90.37 46.1103 94.5571 46.4826 96.125C46.4826 96.125 45.5607 90.5838 47.7412 88.9446C49.904 87.3054 51.1627 90.2274 51.1627 90.2274Z" fill="url(#paint26_radial_40_1873)"/>
<path d="M76.1767 110.111C73.6417 110.111 71.0002 109.434 68.4119 108.775C65.8591 108.116 63.1999 107.439 60.7003 107.439H60.523C59.2111 107.457 57.8284 107.475 56.4279 107.51C56.3215 107.51 56.2328 107.439 56.2151 107.314C56.1974 107.207 56.2683 107.1 56.3747 107.083C78.1977 102.307 84.2961 88.4812 85.998 80.6594C86.0157 80.5703 86.1044 80.499 86.2107 80.499C86.3348 80.499 86.388 80.5703 86.4235 80.6594C86.4412 80.7128 87.6999 86.1649 87.7885 92.2941C87.8949 100.437 85.8916 106.049 81.9738 108.526C80.2896 109.595 78.3927 110.111 76.1767 110.111ZM60.7003 107.011C63.2708 107.011 65.93 107.688 68.5183 108.348C71.0711 109.007 73.6948 109.666 76.1767 109.666C78.3041 109.666 80.1301 109.167 81.7433 108.152C89.8095 103.056 87.0085 85.8799 86.193 81.675C84.4379 88.8197 80.5733 94.7351 74.7053 99.3142C70.2556 102.771 64.6359 105.426 58.3602 107.047C59.087 107.029 59.8139 107.029 60.5053 107.011H60.7003Z" fill="#5A5A09"/>
<path opacity="0.24" d="M87.2035 75.6881C86.7249 73.942 88.9763 69.2739 93.6565 67.991C98.3189 66.6904 103.637 69.2561 104.116 71.0022C104.595 72.7483 101.191 75.2249 96.5284 76.5077C91.8482 77.8084 87.6822 77.4342 87.2035 75.6881Z" fill="#FF5124"/>
<path opacity="0.58" d="M89.774 72.0353C90.0576 72.8015 91.5468 72.944 93.1068 72.3739C94.6669 71.7859 95.7128 70.7169 95.4292 69.9507C95.1455 69.1846 93.6564 69.042 92.0963 69.6122C90.5363 70.1823 89.4903 71.2692 89.774 72.0353Z" fill="white"/>
<path d="M79.1905 46.4681C69.2629 36.0093 62.9518 38.183 60.3458 39.2877C56.8356 40.7665 53.8751 47.2164 54.4956 54.2187C54.8678 50.9403 56.0379 46.575 59.4771 43.8668C65.5755 39.1095 75.9286 46.771 78.836 53.4525C81.4597 59.457 85.6435 70.1474 74.5813 73.6396C78.4105 73.6574 81.3711 72.1251 83.1261 70.6819C86.654 67.8133 89.1182 56.9269 79.1905 46.4681Z" fill="url(#paint27_radial_40_1873)"/>
<path d="M35.3493 62.1292C34.1261 62.4321 32.8674 64.3029 31.9456 67.0112C32.9206 65.8352 34.0375 64.9622 35.2075 64.8731C39.1963 64.588 42.4405 68.3118 44.3906 77.8976C46.3407 87.5012 41.5718 88.9265 39.6572 89.0156C38.1504 89.0869 34.6757 88.9087 31.7683 84.6326C31.9101 85.0602 32.0697 85.5056 32.247 85.9154C36.3067 95.4477 53.7155 92.009 47.493 73.6927C43.9297 63.1804 38.824 61.2918 35.3493 62.1292Z" fill="url(#paint28_radial_40_1873)"/>
<path d="M81.6547 54.8956C85.1294 61.0782 84.7217 67.9201 80.7329 70.2007C76.7441 72.4635 70.6812 69.3098 67.2065 63.1272C63.7318 56.9446 64.1396 50.1027 68.1283 47.8221C72.1171 45.5415 78.1623 48.7129 81.6547 54.8956Z" fill="url(#paint29_radial_40_1873)"/>
<path d="M80.2542 55.5014C82.3993 59.3143 82.2752 63.4836 79.9351 64.8021C77.6127 66.1206 73.9785 64.1072 71.8334 60.2765C69.6883 56.4636 69.8302 52.2943 72.1525 50.958C74.4572 49.6573 78.0914 51.6707 80.2542 55.5014Z" fill="#231F20"/>
<path d="M76.3541 49.5681C78.18 51.2964 78.8537 53.5235 77.8787 54.5569C76.9036 55.5903 74.6345 55.038 72.8262 53.3097C71.018 51.5814 70.3266 49.3543 71.3016 48.3209C72.2767 47.2875 74.5281 47.8576 76.3541 49.5681Z" fill="white"/>
<path d="M48.0071 77.7907C48.8581 83.2784 47.1739 88.2673 44.2488 88.9266C41.3237 89.6036 38.2568 85.7016 37.4058 80.2139C36.5549 74.7261 38.239 69.7372 41.1641 69.078C44.107 68.4188 47.1562 72.3208 48.0071 77.7907Z" fill="url(#paint30_radial_40_1873)"/>
<path d="M46.9258 78.1651C47.4576 81.5504 46.5003 84.615 44.7984 85.0069C43.0966 85.3989 41.2883 82.958 40.7742 79.5726C40.2424 76.1873 41.1997 73.1228 42.9016 72.7308C44.6034 72.3388 46.394 74.7798 46.9258 78.1651Z" fill="#231F20"/>
<path d="M45.862 72.4987C46.6243 74.2448 46.5711 76.08 45.7556 76.5967C44.9401 77.1134 43.6637 76.1335 42.9191 74.3874C42.1568 72.6413 42.21 70.8061 43.0255 70.2715C43.841 69.7548 45.0997 70.7526 45.862 72.4987Z" fill="white"/>
<path opacity="0.24" d="M86.2109 80.6948C84.2786 89.6035 79.297 95.8752 73.1809 100.187C75.1842 99.3852 77.347 98.1024 79.3857 96.1247C83.4276 92.2048 85.3245 93.2917 84.7218 96.677C85.8032 95.5367 86.7782 94.432 87.5582 93.4877C87.6469 86.8418 86.2109 80.6948 86.2109 80.6948Z" fill="#C4C4C4"/>
<path d="M72.915 110.913C72.915 110.913 89.6856 116.847 89.4552 92.3477C89.4552 92.3477 93.0894 104.267 85.9273 110.913C80.2898 116.134 72.915 110.913 72.915 110.913Z" fill="#C9C57D"/>
<path d="M47.5463 118.165C43.4689 115.385 38.7001 112.908 33.2754 111.109C29.1802 108.294 25.8828 104.712 26.0247 100.347C18.5258 101.79 3.43931 106.69 0.620572 122.904C-3.1732 144.659 20.919 145.514 26.0069 152.695C31.0948 159.875 55.1871 147.528 61.835 139.438C64.4056 136.303 60.3636 126.895 47.5463 118.165Z" fill="url(#paint31_radial_40_1873)"/>
<path d="M31.4316 155.064C28.7724 155.064 26.8933 154.316 25.8473 152.819C24.305 150.646 20.9721 149.06 17.1075 147.225C8.4917 143.145 -2.21595 138.049 0.425507 122.886C1.66646 115.759 5.37159 110.04 11.47 105.924C16.5224 102.503 22.1599 100.9 26.0069 100.151C26.0601 100.133 26.131 100.151 26.1842 100.205C26.2373 100.24 26.2551 100.312 26.2551 100.365C26.131 104.035 28.542 107.599 33.3817 110.931C38.4696 112.623 43.2739 115.011 47.6704 118.004C54.0347 122.352 61.7995 129.675 62.7214 136.071C62.9341 137.55 62.6859 138.779 62.0123 139.599C56.5698 146.191 40.4374 155.064 31.4316 155.064ZM25.8119 100.597C6.80755 104.338 1.98556 116.187 0.815521 122.94C-1.77275 137.782 8.79308 142.806 17.267 146.833C21.1849 148.686 24.5709 150.289 26.1664 152.57C27.1415 153.942 28.8965 154.655 31.4139 154.655C40.331 154.655 56.2684 145.871 61.6577 139.314C62.2604 138.583 62.4732 137.479 62.2782 136.124C61.7286 132.222 57.4916 125.22 47.4222 118.343C43.0434 115.367 38.2569 112.998 33.2044 111.305C33.1867 111.305 33.169 111.287 33.1512 111.287C28.2761 107.92 25.7941 104.338 25.8119 100.597Z" fill="#5A5A09"/>
<path d="M37.8669 113.176C37.8314 113.176 37.7959 113.176 37.7428 113.158C27.0706 108.9 17.3557 110.325 17.2493 110.343C17.072 110.361 16.9125 110.254 16.8947 110.076C16.877 109.897 16.9834 109.737 17.1607 109.719C17.2493 109.701 27.1415 108.258 37.9732 112.57C38.1328 112.641 38.2214 112.819 38.1505 112.98C38.115 113.105 37.991 113.176 37.8669 113.176Z" fill="#5A5A09"/>
<g opacity="0.72">
<path opacity="0.52" d="M29.0561 116.935C29.0029 117.434 28.0811 117.754 26.9997 117.63C25.9183 117.523 25.0673 117.024 25.1205 116.525C25.1737 116.026 26.0956 115.705 27.177 115.83C28.2584 115.937 29.1093 116.436 29.0561 116.935Z" fill="#91884A"/>
<path opacity="0.72" d="M31.999 122.048C31.9458 122.618 31.3254 123.01 30.6162 122.939C29.9071 122.868 29.3753 122.333 29.4285 121.781C29.4994 121.211 30.1021 120.819 30.829 120.89C31.5204 120.961 32.0522 121.478 31.999 122.048Z" fill="#91884A"/>
<path opacity="0.49" d="M35.5447 119.447C35.5092 119.732 35.0306 119.91 34.4633 119.857C33.896 119.786 33.4705 119.518 33.506 119.233C33.5414 118.948 34.0201 118.77 34.5696 118.823C35.1369 118.877 35.5801 119.144 35.5447 119.447Z" fill="#91884A"/>
<path opacity="0.72" d="M17.1429 115.688C17.1075 115.973 16.6288 116.151 16.0615 116.098C15.4942 116.044 15.0687 115.759 15.0865 115.474C15.1219 115.189 15.6006 115.011 16.1679 115.064C16.7352 115.118 17.1606 115.403 17.1429 115.688Z" fill="#91884A"/>
<path opacity="0.64" d="M34.7468 124.864C34.7291 125.042 34.4809 125.185 34.1972 125.149C33.9136 125.113 33.7008 124.935 33.7186 124.757C33.7363 124.561 33.9845 124.436 34.2504 124.472C34.5518 124.49 34.7645 124.668 34.7468 124.864Z" fill="#91884A"/>
<path opacity="0.76" d="M26.0069 122.049C25.9714 122.352 25.7232 122.565 25.4396 122.548C25.1559 122.512 24.9609 122.245 24.9787 121.942C25.0141 121.639 25.2623 121.425 25.5459 121.443C25.8473 121.479 26.0423 121.746 26.0069 122.049Z" fill="#91884A"/>
<path opacity="0.23" d="M28.5776 124.881C28.5598 125.042 28.3825 125.166 28.1875 125.148C27.9925 125.131 27.8507 124.97 27.8684 124.81C27.8862 124.65 28.0634 124.525 28.2585 124.543C28.4535 124.578 28.5953 124.721 28.5776 124.881Z" fill="#91884A"/>
<path opacity="0.39" d="M23.277 119.038C23.2415 119.376 22.9047 119.608 22.5324 119.572C22.1601 119.536 21.8765 119.234 21.9119 118.895C21.9474 118.557 22.2842 118.325 22.6565 118.361C23.0288 118.396 23.3124 118.699 23.277 119.038Z" fill="#91884A"/>
<path d="M20.6708 123.385C20.6531 123.581 20.4403 123.723 20.2099 123.706C19.9794 123.67 19.7844 123.492 19.8199 123.296C19.8376 123.1 20.0503 122.957 20.2985 122.975C20.5112 122.993 20.6885 123.171 20.6708 123.385Z" fill="#91884A"/>
<path opacity="0.33" d="M32.1409 115.688C32.1232 115.955 31.9104 116.169 31.6977 116.133C31.4672 116.115 31.3254 115.866 31.3609 115.599C31.3963 115.331 31.5913 115.118 31.8041 115.153C32.0345 115.171 32.1764 115.403 32.1409 115.688Z" fill="#91884A"/>
<path opacity="0.77" d="M22.869 113.728C22.8336 114.013 22.4081 114.209 21.9117 114.155C21.4153 114.102 21.0431 113.817 21.0785 113.532C21.114 113.247 21.5394 113.051 22.0358 113.104C22.5145 113.175 22.9045 113.443 22.869 113.728Z" fill="#91884A"/>
<path opacity="0.77" d="M39.9588 123.509C39.9233 123.812 39.6042 124.026 39.2319 123.99C38.8596 123.955 38.5937 123.67 38.6114 123.367C38.6469 123.064 38.966 122.85 39.3383 122.886C39.7106 122.939 39.9942 123.206 39.9588 123.509Z" fill="#91884A"/>
<path d="M18.3841 118.414C18.3664 118.556 18.1714 118.645 17.9586 118.627C17.7282 118.61 17.5686 118.485 17.5686 118.342C17.5863 118.2 17.7813 118.093 17.9941 118.128C18.2245 118.146 18.4018 118.271 18.3841 118.414Z" fill="#91884A"/>
<path opacity="0.39" d="M39.9411 118.61C39.9234 118.752 39.7284 118.859 39.4979 118.824C39.2674 118.806 39.1079 118.663 39.1256 118.521C39.1433 118.378 39.3383 118.289 39.5511 118.307C39.7815 118.343 39.9588 118.467 39.9411 118.61Z" fill="#91884A"/>
<path opacity="0.23" d="M17.3913 111.233C17.3736 111.376 17.1786 111.465 16.9481 111.447C16.7176 111.412 16.5581 111.287 16.5758 111.144C16.5935 111.002 16.7885 110.913 17.0013 110.93C17.2317 110.948 17.409 111.073 17.3913 111.233Z" fill="#91884A"/>
<path d="M38.6648 127.02C38.6471 127.162 38.4521 127.269 38.2394 127.234C38.0089 127.198 37.8493 127.073 37.8671 126.931C37.8848 126.788 38.0798 126.681 38.2925 126.717C38.5053 126.735 38.6648 126.877 38.6648 127.02Z" fill="#91884A"/>
<path opacity="0.27" d="M13.2252 117.612C13.2074 117.755 13.0124 117.861 12.7997 117.826C12.5692 117.808 12.3919 117.666 12.4097 117.523C12.4274 117.38 12.6224 117.274 12.8529 117.309C13.0656 117.345 13.2252 117.47 13.2252 117.612Z" fill="#91884A"/>
<path opacity="0.27" d="M28.3293 112.374C28.2938 112.695 27.9747 112.944 27.6202 112.891C27.2656 112.855 26.9997 112.552 27.0352 112.231C27.0706 111.911 27.3897 111.661 27.7443 111.697C28.0988 111.75 28.3647 112.053 28.3293 112.374Z" fill="#91884A"/>
</g>
<path opacity="0.5" d="M47.5463 118.165C43.4689 115.385 38.7001 112.908 33.2754 111.109C29.1802 108.294 25.8828 104.712 26.0247 100.347C18.5258 101.79 3.43931 106.69 0.620572 122.904C-3.1732 144.659 20.919 145.514 26.0069 152.695C31.0948 159.875 55.1871 147.528 61.835 139.438C64.4056 136.303 60.3636 126.895 47.5463 118.165ZM49.9928 129.265C47.3336 130.779 47.9186 133.63 43.8412 134.182C39.7638 134.735 42.3698 139.83 39.9588 143.234C37.5478 146.619 25.2624 139.955 15.0865 134.984C4.91073 129.995 2.07426 119.376 6.48851 112.32C10.9028 105.265 17.1607 103.715 19.8022 103.269C23.5073 102.663 28.0634 103.447 23.2768 105.71C18.4903 107.973 12.2855 110.984 16.9657 111.465C21.6459 111.928 38.0442 107.795 49.4255 122.565C51.1274 124.739 52.6697 127.75 49.9928 129.265Z" fill="url(#paint32_radial_40_1873)"/>
<path opacity="0.5" d="M44.8693 141.88C42.352 135.608 40.8806 145.087 40.8806 145.087C40.8806 145.087 40.8806 145.087 40.6324 147.635C40.3842 150.183 34.1617 153.318 15.6537 144.018C5.4602 138.886 1.61325 132.383 0.230469 127.572C0.460932 144.819 21.3267 146.049 26.0246 152.677C31.1125 159.857 55.2047 147.51 61.8527 139.421C62.8809 138.174 62.8454 135.929 61.6399 133.131C58.2007 139.082 46.9435 147.047 44.8693 141.88Z" fill="url(#paint33_radial_40_1873)"/>
<path d="M59.0338 144.552C61.6753 145.977 64.3699 141.701 64.3699 138.69C64.3699 135.679 58.1474 123.225 54.4068 125.327C50.6485 127.447 59.0338 144.552 59.0338 144.552Z" fill="#CCE3A7"/>
<path d="M60.1153 145.051C59.7075 145.051 59.3175 144.944 58.9275 144.748C58.892 144.73 58.8566 144.695 58.8388 144.641C58.4843 143.946 50.4004 127.323 54.2828 125.149C54.6019 124.971 54.9387 124.882 55.2933 124.882C59.2643 124.882 64.565 135.822 64.565 138.69C64.565 140.009 64.0686 141.595 63.2531 142.86C62.3667 144.249 61.2144 145.051 60.1153 145.051ZM59.1934 144.41C59.4948 144.552 59.7962 144.641 60.1153 144.641C61.0726 144.641 62.0831 143.911 62.8985 142.646C63.6608 141.452 64.1395 139.955 64.1395 138.708C64.1395 136.053 58.8388 125.327 55.2933 125.327C55.0096 125.327 54.726 125.399 54.4778 125.541C51.5704 127.162 56.871 139.635 59.1934 144.41Z" fill="#BFB660"/>
<path d="M50.17 130.761C53.2724 128.891 55.7366 132.24 58.059 138.53C60.3813 144.819 59.3708 147.242 56.428 148.989C53.4852 150.735 49.9928 149.951 48.8227 143.608C47.6527 137.265 46.8726 132.775 50.17 130.761Z" fill="#CCE3A7"/>
<path d="M53.7689 150.004C52.2797 150.004 49.6383 149.184 48.61 143.643C47.44 137.282 46.5891 132.703 50.0637 130.583C50.6665 130.209 51.2692 130.031 51.8365 130.031C54.088 130.031 56.1267 132.703 58.254 138.458C60.7005 145.086 59.4063 147.474 56.5344 149.167C55.6126 149.719 54.6553 150.004 53.7689 150.004ZM51.8365 130.458C51.3401 130.458 50.8083 130.619 50.2765 130.957C47.05 132.917 47.8832 137.389 49.0178 143.572C49.7446 147.456 51.4111 149.594 53.7511 149.594C54.5666 149.594 55.4353 149.327 56.304 148.828C59.9382 146.672 59.6368 143.447 57.8463 138.619C55.843 133.131 53.8752 130.458 51.8365 130.458Z" fill="#BFB660"/>
<path d="M44.8164 134.966C47.9719 134.147 50.4539 138.762 51.2871 144.089C52.1025 149.398 50.6489 151.537 48.0606 152.962C45.4546 154.387 41.9976 149.007 41.9976 142.022C41.9799 135.056 44.8164 134.966 44.8164 134.966Z" fill="#CCE3A7"/>
<path d="M47.1741 153.407C44.1249 153.407 41.7671 147.296 41.7671 142.022C41.7671 135.198 44.4617 134.788 44.7808 134.753C45.029 134.681 45.2772 134.664 45.5254 134.664C47.7591 134.664 50.4715 137.568 51.482 144.053C52.3861 149.933 50.4006 151.893 48.1314 153.14C47.83 153.301 47.5109 153.407 47.1741 153.407ZM45.5431 135.091C45.3127 135.091 45.0999 135.109 44.8695 135.18C44.8517 135.18 44.834 135.18 44.8163 135.18C44.7986 135.18 42.1926 135.394 42.1926 142.022C42.1926 146.993 44.4085 152.98 47.1741 152.98C47.44 152.98 47.7059 152.909 47.9541 152.784C50.4183 151.43 51.8897 149.452 51.0742 144.125C50.241 138.797 47.9719 135.091 45.5431 135.091Z" fill="#BFB660"/>
<path d="M61.6931 134.468C60.2749 131.457 60.3812 131.403 60.3812 131.403C60.3812 131.403 57.598 126.325 56.0024 126.414C54.3892 126.486 57.7043 134.058 59.6898 136.374C61.6576 138.69 63.6432 138.619 61.6931 134.468Z" fill="#C9C57D"/>
<path d="M55.0983 134.717C53.8396 132.026 52.4745 130.851 51.1627 131.813C49.8508 132.775 53.1482 139.848 55.2224 141.773C57.7752 144.16 58.3779 141.755 55.0983 134.717Z" fill="#C9C57D"/>
<path d="M49.8864 141.648C49.1064 138.726 47.4932 135.216 45.5963 136.303C43.6994 137.39 47.635 144.713 49.1951 146.352C50.8083 148.009 50.436 143.697 49.8864 141.648Z" fill="#C9C57D"/>
</g>
<defs>
<radialGradient id="paint0_radial_40_1873" cx="0" cy="0" r="1" gradientUnits="userSpaceOnUse" gradientTransform="translate(108.409 120.572) scale(27.7179 27.8578)">
<stop offset="0.2108" stop-color="#FFF40E"/>
<stop offset="0.2948" stop-color="#F7EE0E"/>
<stop offset="0.4281" stop-color="#E0DD0E"/>
<stop offset="0.5933" stop-color="#BAC20E"/>
<stop offset="0.6113" stop-color="#B6BF0E"/>
<stop offset="1" stop-color="#839407"/>
</radialGradient>
<radialGradient id="paint1_radial_40_1873" cx="0" cy="0" r="1" gradientUnits="userSpaceOnUse" gradientTransform="translate(108.409 120.572) scale(27.7179 27.8578)">
<stop offset="0.0227" stop-color="#FFF40E"/>
<stop offset="0.1162" stop-color="#F7EE0E"/>
<stop offset="0.2645" stop-color="#E0DD0E"/>
<stop offset="0.4482" stop-color="#BAC20E"/>
<stop offset="0.4682" stop-color="#B6BF0E"/>
<stop offset="0.608" stop-color="#AFB90D"/>
<stop offset="0.8154" stop-color="#9BA80A"/>
<stop offset="1" stop-color="#839407"/>
</radialGradient>
<radialGradient id="paint2_radial_40_1873" cx="0" cy="0" r="1" gradientUnits="userSpaceOnUse" gradientTransform="translate(167.267 104.398) scale(61.0911 61.3994)">
<stop offset="0.2143" stop-color="#FFF9BF"/>
<stop offset="0.3035" stop-color="#FFF5A2"/>
<stop offset="0.4653" stop-color="#FEEE72"/>
<stop offset="0.5459" stop-color="#FEEB60"/>
<stop offset="0.6112" stop-color="#F9E056"/>
<stop offset="0.7251" stop-color="#EDC43D"/>
<stop offset="0.873" stop-color="#D99514"/>
<stop offset="0.9342" stop-color="#D08001"/>
</radialGradient>
<radialGradient id="paint3_radial_40_1873" cx="0" cy="0" r="1" gradientUnits="userSpaceOnUse" gradientTransform="translate(167.267 104.398) scale(61.0911 61.3994)">
<stop offset="0.2143" stop-color="#FFF9BF"/>
<stop offset="0.3035" stop-color="#FFF5A2"/>
<stop offset="0.4653" stop-color="#FEEE72"/>
<stop offset="0.5459" stop-color="#FEEB60"/>
<stop offset="0.6112" stop-color="#F9E056"/>
<stop offset="0.7251" stop-color="#EDC43D"/>
<stop offset="0.873" stop-color="#D99514"/>
<stop offset="0.9342" stop-color="#D08001"/>
</radialGradient>
<radialGradient id="paint4_radial_40_1873" cx="0" cy="0" r="1" gradientUnits="userSpaceOnUse" gradientTransform="translate(135.284 106.785) scale(62.1654 62.4791)">
<stop offset="0.2108" stop-color="#FFF40E"/>
<stop offset="0.2948" stop-color="#F7EE0E"/>
<stop offset="0.4281" stop-color="#E0DD0E"/>
<stop offset="0.5933" stop-color="#BAC20E"/>
<stop offset="0.6113" stop-color="#B6BF0E"/>
<stop offset="1" stop-color="#839407"/>
</radialGradient>
<radialGradient id="paint5_radial_40_1873" cx="0" cy="0" r="1" gradientUnits="userSpaceOnUse" gradientTransform="translate(176.155 149.549) scale(95.0909 95.5708)">
<stop offset="0.0227" stop-color="#FFF40E"/>
<stop offset="0.1162" stop-color="#F7EE0E"/>
<stop offset="0.2645" stop-color="#E0DD0E"/>
<stop offset="0.4482" stop-color="#BAC20E"/>
<stop offset="0.4682" stop-color="#B6BF0E"/>
<stop offset="0.608" stop-color="#AFB90D"/>
<stop offset="0.8154" stop-color="#9BA80A"/>
<stop offset="1" stop-color="#839407"/>
</radialGradient>
<radialGradient id="paint6_radial_40_1873" cx="0" cy="0" r="1" gradientUnits="userSpaceOnUse" gradientTransform="translate(176.155 149.547) scale(95.0834 95.5633)">
<stop offset="0.0227" stop-color="#FFF40E"/>
<stop offset="0.1162" stop-color="#F7EE0E"/>
<stop offset="0.2645" stop-color="#E0DD0E"/>
<stop offset="0.4482" stop-color="#BAC20E"/>
<stop offset="0.4682" stop-color="#B6BF0E"/>
<stop offset="0.608" stop-color="#AFB90D"/>
<stop offset="0.8154" stop-color="#9BA80A"/>
<stop offset="1" stop-color="#839407"/>
</radialGradient>
<radialGradient id="paint7_radial_40_1873" cx="0" cy="0" r="1" gradientUnits="userSpaceOnUse" gradientTransform="translate(204.428 119.447) scale(63.1608 63.4795)">
<stop offset="0.2108" stop-color="#FFF40E"/>
<stop offset="0.2948" stop-color="#F7EE0E"/>
<stop offset="0.4281" stop-color="#E0DD0E"/>
<stop offset="0.5933" stop-color="#BAC20E"/>
<stop offset="0.6113" stop-color="#B6BF0E"/>
<stop offset="1" stop-color="#839407"/>
</radialGradient>
<radialGradient id="paint8_radial_40_1873" cx="0" cy="0" r="1" gradientUnits="userSpaceOnUse" gradientTransform="translate(196.03 139.704) scale(68.0727 68.4162)">
<stop offset="0.0227" stop-color="#FFF40E"/>
<stop offset="0.1162" stop-color="#F7EE0E"/>
<stop offset="0.2645" stop-color="#E0DD0E"/>
<stop offset="0.4482" stop-color="#BAC20E"/>
<stop offset="0.4682" stop-color="#B6BF0E"/>
<stop offset="0.608" stop-color="#AFB90D"/>
<stop offset="0.8154" stop-color="#9BA80A"/>
<stop offset="1" stop-color="#839407"/>
</radialGradient>
<radialGradient id="paint9_radial_40_1873" cx="0" cy="0" r="1" gradientUnits="userSpaceOnUse" gradientTransform="translate(220.835 91.2858) scale(17.1058 17.1922)">
<stop offset="0.0227" stop-color="#FFF40E"/>
<stop offset="0.1162" stop-color="#F7EE0E"/>
<stop offset="0.2645" stop-color="#E0DD0E"/>
<stop offset="0.4482" stop-color="#BAC20E"/>
<stop offset="0.4682" stop-color="#B6BF0E"/>
<stop offset="0.608" stop-color="#AFB90D"/>
<stop offset="0.8154" stop-color="#9BA80A"/>
<stop offset="1" stop-color="#839407"/>
</radialGradient>
<radialGradient id="paint10_radial_40_1873" cx="0" cy="0" r="1" gradientUnits="userSpaceOnUse" gradientTransform="translate(196.03 139.703) scale(68.0697 68.4131)">
<stop offset="0.0227" stop-color="#FFF40E"/>
<stop offset="0.1162" stop-color="#F7EE0E"/>
<stop offset="0.2645" stop-color="#E0DD0E"/>
<stop offset="0.4482" stop-color="#BAC20E"/>
<stop offset="0.4682" stop-color="#B6BF0E"/>
<stop offset="0.608" stop-color="#AFB90D"/>
<stop offset="0.8154" stop-color="#9BA80A"/>
<stop offset="1" stop-color="#839407"/>
</radialGradient>
<radialGradient id="paint11_radial_40_1873" cx="0" cy="0" r="1" gradientUnits="userSpaceOnUse" gradientTransform="translate(244.361 52.2031) scale(9.51511 9.56312)">
<stop offset="0.2108" stop-color="#FFF40E"/>
<stop offset="0.2948" stop-color="#F7EE0E"/>
<stop offset="0.4281" stop-color="#E0DD0E"/>
<stop offset="0.5933" stop-color="#BAC20E"/>
<stop offset="0.6113" stop-color="#B6BF0E"/>
<stop offset="1" stop-color="#839407"/>
</radialGradient>
<radialGradient id="paint12_radial_40_1873" cx="0" cy="0" r="1" gradientUnits="userSpaceOnUse" gradientTransform="translate(158.135 53.4707) scale(74.5769 74.9532)">
<stop stop-color="#79820F"/>
<stop offset="1" stop-color="#354906"/>
</radialGradient>
<linearGradient id="paint13_linear_40_1873" x1="173.334" y1="0.654791" x2="157.882" y2="80.1534" gradientUnits="userSpaceOnUse">
<stop stop-color="#D4D5D4"/>
<stop offset="0.9859" stop-color="#030303"/>
<stop offset="1"/>
</linearGradient>
<radialGradient id="paint14_radial_40_1873" cx="0" cy="0" r="1" gradientUnits="userSpaceOnUse" gradientTransform="translate(158.135 58.9264) scale(72.7239 73.091)">
<stop stop-color="#79820F"/>
<stop offset="1" stop-color="#354906"/>
</radialGradient>
<radialGradient id="paint15_radial_40_1873" cx="0" cy="0" r="1" gradientUnits="userSpaceOnUse" gradientTransform="translate(153.526 87.2299) scale(70.8249 71.1824)">
<stop stop-color="#A9B70F"/>
<stop offset="1" stop-color="#4A6B06"/>
</radialGradient>
<linearGradient id="paint16_linear_40_1873" x1="139.059" y1="97.0215" x2="185.233" y2="97.0215" gradientUnits="userSpaceOnUse">
<stop/>
<stop offset="0.0141" stop-color="#030303"/>
<stop offset="1" stop-color="#D4D5D4"/>
</linearGradient>
<linearGradient id="paint17_linear_40_1873" x1="206.351" y1="84.3543" x2="238.677" y2="84.3543" gradientUnits="userSpaceOnUse">
<stop/>
<stop offset="0.0141" stop-color="#030303"/>
<stop offset="1" stop-color="#D4D5D4"/>
</linearGradient>
<linearGradient id="paint18_linear_40_1873" x1="115.318" y1="99.7579" x2="133.255" y2="99.7579" gradientUnits="userSpaceOnUse">
<stop/>
<stop offset="0.0141" stop-color="#030303"/>
<stop offset="1" stop-color="#D4D5D4"/>
</linearGradient>
<linearGradient id="paint19_linear_40_1873" x1="153.261" y1="92.7572" x2="182.165" y2="92.7572" gradientUnits="userSpaceOnUse">
<stop/>
<stop offset="0.0141" stop-color="#030303"/>
<stop offset="1" stop-color="#D4D5D4"/>
</linearGradient>
<linearGradient id="paint20_linear_40_1873" x1="215.454" y1="78.8015" x2="235.167" y2="78.8015" gradientUnits="userSpaceOnUse">
<stop/>
<stop offset="0.0141" stop-color="#030303"/>
<stop offset="1" stop-color="#D4D5D4"/>
</linearGradient>
<radialGradient id="paint21_radial_40_1873" cx="0" cy="0" r="1" gradientUnits="userSpaceOnUse" gradientTransform="translate(66.6992 62.6115) scale(66.2339 66.5682)">
<stop offset="0.2108" stop-color="#FFF40E"/>
<stop offset="0.2948" stop-color="#F7EE0E"/>
<stop offset="0.4281" stop-color="#E0DD0E"/>
<stop offset="0.5933" stop-color="#BAC20E"/>
<stop offset="0.6113" stop-color="#B6BF0E"/>
<stop offset="1" stop-color="#839407"/>
</radialGradient>
<radialGradient id="paint22_radial_40_1873" cx="0" cy="0" r="1" gradientUnits="userSpaceOnUse" gradientTransform="translate(49.0639 67.6751) scale(70.041 70.3945)">
<stop offset="0.0227" stop-color="#FFF40E"/>
<stop offset="0.1162" stop-color="#F7EE0E"/>
<stop offset="0.2645" stop-color="#E0DD0E"/>
<stop offset="0.4482" stop-color="#BAC20E"/>
<stop offset="0.4682" stop-color="#B6BF0E"/>
<stop offset="0.608" stop-color="#AFB90D"/>
<stop offset="0.8154" stop-color="#9BA80A"/>
<stop offset="1" stop-color="#839407"/>
</radialGradient>
<radialGradient id="paint23_radial_40_1873" cx="0" cy="0" r="1" gradientUnits="userSpaceOnUse" gradientTransform="translate(70.3043 55.9971) scale(16.7697 16.8543)">
<stop stop-color="white"/>
<stop offset="0.6173" stop-color="white"/>
<stop offset="0.9439" stop-color="#D6CDC6"/>
</radialGradient>
<radialGradient id="paint24_radial_40_1873" cx="0" cy="0" r="1" gradientUnits="userSpaceOnUse" gradientTransform="translate(39.6437 76.5079) scale(12.1261 12.1873)">
<stop stop-color="white"/>
<stop offset="0.6173" stop-color="white"/>
<stop offset="0.9439" stop-color="#D6CDC6"/>
</radialGradient>
<radialGradient id="paint25_radial_40_1873" cx="0" cy="0" r="1" gradientUnits="userSpaceOnUse" gradientTransform="translate(56.9612 87.4183) scale(2.85136 2.86575)">
<stop offset="0.0227" stop-color="#FFF40E"/>
<stop offset="0.1162" stop-color="#F7EE0E"/>
<stop offset="0.2645" stop-color="#E0DD0E"/>
<stop offset="0.4482" stop-color="#BAC20E"/>
<stop offset="0.4682" stop-color="#B6BF0E"/>
<stop offset="0.608" stop-color="#AFB90D"/>
<stop offset="0.8154" stop-color="#9BA80A"/>
<stop offset="1" stop-color="#839407"/>
</radialGradient>
<radialGradient id="paint26_radial_40_1873" cx="0" cy="0" r="1" gradientUnits="userSpaceOnUse" gradientTransform="translate(48.7212 92.2912) scale(3.20733 3.22352)">
<stop offset="0.0227" stop-color="#FFF40E"/>
<stop offset="0.1162" stop-color="#F7EE0E"/>
<stop offset="0.2645" stop-color="#E0DD0E"/>
<stop offset="0.4482" stop-color="#BAC20E"/>
<stop offset="0.4682" stop-color="#B6BF0E"/>
<stop offset="0.608" stop-color="#AFB90D"/>
<stop offset="0.8154" stop-color="#9BA80A"/>
<stop offset="1" stop-color="#839407"/>
</radialGradient>
<radialGradient id="paint27_radial_40_1873" cx="0" cy="0" r="1" gradientUnits="userSpaceOnUse" gradientTransform="translate(70.3069 55.9958) scale(16.7676 16.8522)">
<stop stop-color="white"/>
<stop offset="0.6173" stop-color="white"/>
<stop offset="0.9439" stop-color="#D6CDC6"/>
</radialGradient>
<radialGradient id="paint28_radial_40_1873" cx="0" cy="0" r="1" gradientUnits="userSpaceOnUse" gradientTransform="translate(40.288 76.5078) scale(11.8883 11.9483)">
<stop stop-color="white"/>
<stop offset="0.6173" stop-color="white"/>
<stop offset="0.9439" stop-color="#D6CDC6"/>
</radialGradient>
<radialGradient id="paint29_radial_40_1873" cx="0" cy="0" r="1" gradientUnits="userSpaceOnUse" gradientTransform="translate(74.4251 59.0044) scale(10.7862 10.8406)">
<stop stop-color="white"/>
<stop offset="0.0555" stop-color="#F4FBFB"/>
<stop offset="0.1534" stop-color="#D6F0F2"/>
<stop offset="0.282" stop-color="#A6DFE3"/>
<stop offset="0.4348" stop-color="#65C7CE"/>
<stop offset="0.4971" stop-color="#48BCC5"/>
<stop offset="0.7814" stop-color="#203C84"/>
<stop offset="0.9732" stop-color="#27326D"/>
</radialGradient>
<radialGradient id="paint30_radial_40_1873" cx="0" cy="0" r="1" gradientUnits="userSpaceOnUse" gradientTransform="translate(42.7111 79.011) scale(8.04616 8.08677)">
<stop stop-color="white"/>
<stop offset="0.0555" stop-color="#F4FBFB"/>
<stop offset="0.1534" stop-color="#D6F0F2"/>
<stop offset="0.282" stop-color="#A6DFE3"/>
<stop offset="0.4348" stop-color="#65C7CE"/>
<stop offset="0.4971" stop-color="#48BCC5"/>
<stop offset="0.7814" stop-color="#203C84"/>
<stop offset="0.9732" stop-color="#27326D"/>
</radialGradient>
<radialGradient id="paint31_radial_40_1873" cx="0" cy="0" r="1" gradientUnits="userSpaceOnUse" gradientTransform="translate(44.5851 103.407) scale(52.1284 52.3914)">
<stop offset="0.2108" stop-color="#FFF40E"/>
<stop offset="0.2948" stop-color="#F7EE0E"/>
<stop offset="0.4281" stop-color="#E0DD0E"/>
<stop offset="0.5933" stop-color="#BAC20E"/>
<stop offset="0.6113" stop-color="#B6BF0E"/>
<stop offset="1" stop-color="#839407"/>
</radialGradient>
<radialGradient id="paint32_radial_40_1873" cx="0" cy="0" r="1" gradientUnits="userSpaceOnUse" gradientTransform="translate(35.627 108.471) scale(51.1337 51.3917)">
<stop offset="0.0227" stop-color="#FFF40E"/>
<stop offset="0.1162" stop-color="#F7EE0E"/>
<stop offset="0.2645" stop-color="#E0DD0E"/>
<stop offset="0.4482" stop-color="#BAC20E"/>
<stop offset="0.4682" stop-color="#B6BF0E"/>
<stop offset="0.608" stop-color="#AFB90D"/>
<stop offset="0.8154" stop-color="#9BA80A"/>
<stop offset="1" stop-color="#839407"/>
</radialGradient>
<radialGradient id="paint33_radial_40_1873" cx="0" cy="0" r="1" gradientUnits="userSpaceOnUse" gradientTransform="translate(35.6269 108.472) scale(51.1324 51.3905)">
<stop offset="0.0227" stop-color="#FFF40E"/>
<stop offset="0.1162" stop-color="#F7EE0E"/>
<stop offset="0.2645" stop-color="#E0DD0E"/>
<stop offset="0.4482" stop-color="#BAC20E"/>
<stop offset="0.4682" stop-color="#B6BF0E"/>
<stop offset="0.608" stop-color="#AFB90D"/>
<stop offset="0.8154" stop-color="#9BA80A"/>
<stop offset="1" stop-color="#839407"/>
</radialGradient>
<clipPath id="clip0_40_1873">
<rect width="267" height="160" fill="white"/>
</clipPath>
</defs>
</svg>
